<svg width="500" height="500" viewBox="0 0 500 500" fill="none" xmlns="http://www.w3.org/2000/svg">
<g opacity="0.08">
<path d="M221.453 134.845H260.183C261.458 134.845 262.492 133.811 262.492 132.536V115.925C262.492 114.649 261.458 113.616 260.183 113.616H221.453C220.178 113.616 219.144 114.649 219.144 115.925V132.536C219.144 133.811 220.178 134.845 221.453 134.845Z" fill="#2F357B"/>
<path d="M176.424 134.844H215.153C216.429 134.844 217.463 133.81 217.463 132.534V115.925C217.463 114.649 216.429 113.616 215.153 113.616H176.424C175.149 113.616 174.114 114.649 174.114 115.925V132.535C174.114 133.81 175.149 134.844 176.424 134.844Z" fill="#2F357B"/>
<path d="M131.395 134.845H170.125C171.4 134.845 172.434 133.811 172.434 132.536V115.925C172.434 114.649 171.4 113.616 170.125 113.616H131.395C130.12 113.616 129.086 114.649 129.086 115.925V132.536C129.086 133.811 130.12 134.845 131.395 134.845Z" fill="#2F357B"/>
<path d="M156.449 111.751H195.179C196.454 111.751 197.488 110.717 197.488 109.442V92.832C197.488 91.557 196.454 90.523 195.179 90.523H156.449C155.174 90.523 154.14 91.557 154.14 92.832V109.442C154.14 110.717 155.174 111.751 156.449 111.751Z" fill="#2F357B"/>
<path d="M245.98 157.937H284.71C285.985 157.937 287.019 156.903 287.019 155.628V139.018C287.019 137.742 285.985 136.709 284.71 136.709H245.98C244.705 136.709 243.671 137.742 243.671 139.018V155.628C243.671 156.903 244.705 157.937 245.98 157.937Z" fill="#2F357B"/>
<path d="M201.477 157.937H240.206C241.482 157.937 242.516 156.903 242.516 155.628V139.018C242.516 137.742 241.482 136.709 240.206 136.709H201.477C200.202 136.709 199.167 137.742 199.167 139.018V155.628C199.167 156.903 200.202 157.937 201.477 157.937Z" fill="#2F357B"/>
<path d="M156.448 157.937H195.178C196.453 157.937 197.487 156.903 197.487 155.628V139.018C197.487 137.742 196.453 136.709 195.178 136.709H156.448C155.173 136.709 154.139 137.742 154.139 139.018V155.628C154.139 156.903 155.173 157.937 156.448 157.937Z" fill="#2F357B"/>
<path d="M111.42 157.937H150.15C151.425 157.937 152.459 156.903 152.459 155.628V139.018C152.459 137.742 151.425 136.709 150.15 136.709H111.42C110.145 136.709 109.111 137.742 109.111 139.018V155.628C109.111 156.903 110.145 157.937 111.42 157.937Z" fill="#2F357B"/>
<path d="M244.664 204.122H283.394C284.668 204.122 285.703 203.088 285.703 201.813V185.203C285.703 183.927 284.668 182.894 283.393 182.894H244.664C243.389 182.894 242.354 183.927 242.354 185.203V201.813C242.354 203.088 243.389 204.122 244.664 204.122Z" fill="#2F357B"/>
<path d="M200.162 204.122H238.891C240.167 204.122 241.201 203.088 241.201 201.813V185.203C241.201 183.927 240.167 182.894 238.891 182.894H200.162C198.887 182.894 197.853 183.927 197.853 185.203V201.813C197.853 203.088 198.887 204.122 200.162 204.122Z" fill="#2F357B"/>
<path d="M155.133 204.122H193.862C195.138 204.122 196.172 203.088 196.172 201.813V185.203C196.172 183.927 195.138 182.894 193.862 182.894H155.133C153.858 182.894 152.823 183.927 152.823 185.203V201.813C152.823 203.088 153.858 204.122 155.133 204.122Z" fill="#2F357B"/>
<path d="M110.104 204.122H148.833C150.109 204.122 151.143 203.088 151.143 201.813V185.203C151.143 183.927 150.109 182.894 148.833 182.894H110.104C108.829 182.894 107.794 183.927 107.794 185.203V201.813C107.794 203.088 108.829 204.122 110.104 204.122Z" fill="#2F357B"/>
<path d="M224.689 181.03H263.418C264.694 181.03 265.727 179.996 265.727 178.72V162.111C265.727 160.835 264.694 159.802 263.418 159.802H224.689C223.413 159.802 222.379 160.835 222.379 162.111V178.72C222.379 179.996 223.414 181.03 224.689 181.03Z" fill="#2F357B"/>
<path d="M180.186 181.031H218.915C220.191 181.031 221.225 179.997 221.225 178.721V162.111C221.225 160.835 220.191 159.802 218.915 159.802H180.186C178.911 159.802 177.876 160.835 177.876 162.111V178.721C177.876 179.997 178.911 181.031 180.186 181.031Z" fill="#2F357B"/>
<path d="M135.159 181.03H173.888C175.164 181.03 176.198 179.996 176.198 178.72V162.111C176.198 160.835 175.164 159.802 173.888 159.802H135.159C133.884 159.802 132.849 160.835 132.849 162.111V178.72C132.849 179.996 133.884 181.03 135.159 181.03Z" fill="#2F357B"/>
<path d="M90.1291 181.031H128.859C130.134 181.031 131.168 179.997 131.168 178.721V162.111C131.168 160.835 130.134 159.802 128.859 159.802H90.1291C88.8541 159.802 87.8201 160.835 87.8201 162.111V178.721C87.8201 179.997 88.8541 181.031 90.1291 181.031Z" fill="#2F357B"/>
<path d="M224.688 227.215H263.418C264.693 227.215 265.727 226.181 265.727 224.906V208.296C265.727 207.021 264.693 205.987 263.418 205.987H224.688C223.413 205.987 222.379 207.021 222.379 208.296V224.906C222.379 226.181 223.413 227.215 224.688 227.215Z" fill="#2F357B"/>
<path d="M180.186 227.215H218.915C220.191 227.215 221.225 226.181 221.225 224.906V208.296C221.225 207.021 220.191 205.987 218.915 205.987H180.186C178.911 205.987 177.876 207.021 177.876 208.296V224.906C177.876 226.181 178.911 227.215 180.186 227.215Z" fill="#2F357B"/>
<path d="M135.158 227.215H173.888C175.163 227.215 176.197 226.181 176.197 224.906V208.296C176.197 207.021 175.163 205.987 173.888 205.987H135.158C133.883 205.987 132.849 207.021 132.849 208.296V224.906C132.849 226.181 133.883 227.215 135.158 227.215Z" fill="#2F357B"/>
<path d="M90.1291 227.215H128.859C130.134 227.215 131.168 226.181 131.168 224.906V208.296C131.168 207.021 130.134 205.987 128.859 205.987H90.1291C88.8541 205.987 87.8201 207.021 87.8201 208.296V224.906C87.8201 226.181 88.8541 227.215 90.1291 227.215Z" fill="#2F357B"/>
<path d="M223.751 274.301H262.48C263.756 274.301 264.79 273.267 264.79 271.991V255.381C264.79 254.106 263.756 253.072 262.48 253.072H223.751C222.476 253.072 221.442 254.106 221.442 255.38V271.991C221.442 273.267 222.476 274.301 223.751 274.301Z" fill="#2F357B"/>
<path d="M178.722 274.301H217.451C218.727 274.301 219.761 273.267 219.761 271.991V255.381C219.761 254.106 218.727 253.072 217.451 253.072H178.722C177.447 253.072 176.412 254.106 176.412 255.381V271.991C176.412 273.267 177.447 274.301 178.722 274.301Z" fill="#2F357B"/>
<path d="M133.693 274.301H172.422C173.698 274.301 174.732 273.267 174.732 271.991V255.381C174.732 254.106 173.698 253.072 172.422 253.072H133.693C132.418 253.072 131.383 254.106 131.383 255.38V271.991C131.383 273.267 132.418 274.301 133.693 274.301Z" fill="#2F357B"/>
<path d="M248.278 251.209H287.007C288.283 251.209 289.317 250.175 289.317 248.899V232.289C289.317 231.013 288.283 229.979 287.007 229.979H248.278C247.003 229.979 245.969 231.013 245.969 232.288V248.899C245.969 250.175 247.003 251.209 248.278 251.209Z" fill="#2F357B"/>
<path d="M203.776 251.209H242.505C243.781 251.209 244.815 250.175 244.815 248.899V232.289C244.815 231.013 243.781 229.979 242.505 229.979H203.776C202.501 229.979 201.466 231.013 201.466 232.288V248.899C201.466 250.175 202.501 251.209 203.776 251.209Z" fill="#2F357B"/>
<path d="M158.747 251.209H197.477C198.752 251.209 199.786 250.175 199.786 248.899V232.289C199.786 231.013 198.752 229.979 197.477 229.979H158.747C157.472 229.979 156.438 231.013 156.438 232.289V248.899C156.438 250.175 157.472 251.209 158.747 251.209Z" fill="#2F357B"/>
<path d="M113.718 251.209H152.448C153.723 251.209 154.757 250.175 154.757 248.899V232.289C154.757 231.013 153.723 229.979 152.448 229.979H113.718C112.443 229.979 111.409 231.013 111.409 232.288V248.899C111.409 250.175 112.443 251.209 113.718 251.209Z" fill="#2F357B"/>
<path d="M68.0721 251.209H106.802C108.077 251.209 109.111 250.175 109.111 248.899V232.289C109.111 231.013 108.077 229.979 106.802 229.979H68.0721C66.7971 229.979 65.7631 231.013 65.7631 232.289V248.899C65.7631 250.175 66.7971 251.209 68.0721 251.209Z" fill="#2F357B"/>
<path d="M51.6661 320.906H90.3961C91.6711 320.906 92.7051 319.873 92.7051 318.597V301.986C92.7051 300.711 91.6711 299.677 90.3961 299.677H51.6661C50.3911 299.677 49.3571 300.711 49.3571 301.986V318.597C49.3571 319.873 50.3911 320.906 51.6661 320.906Z" fill="#2F357B"/>
<path d="M73.256 344.481H111.985C113.261 344.481 114.295 343.447 114.295 342.171V325.56C114.295 324.285 113.261 323.252 111.985 323.252H73.256C71.981 323.252 70.947 324.285 70.947 325.56V342.171C70.947 343.447 71.981 344.481 73.256 344.481Z" fill="#2F357B"/>
<path d="M68.0721 297.332H106.802C108.077 297.332 109.111 296.298 109.111 295.022V278.411C109.111 277.136 108.077 276.103 106.802 276.103H68.0721C66.7971 276.103 65.7631 277.136 65.7631 278.411V295.022C65.7631 296.298 66.7971 297.332 68.0721 297.332Z" fill="#2F357B"/>
<path d="M86.366 134.845H125.096C126.371 134.845 127.405 133.811 127.405 132.536V115.925C127.405 114.649 126.371 113.616 125.096 113.616H86.366C85.091 113.616 84.057 114.649 84.057 115.925V132.536C84.057 133.811 85.091 134.845 86.366 134.845Z" fill="#2F357B"/>
<path d="M41.337 134.844H80.067C81.342 134.844 82.376 133.81 82.376 132.535V115.925C82.376 114.649 81.342 113.616 80.067 113.616H41.337C40.062 113.616 39.028 114.649 39.028 115.925V132.535C39.028 133.81 40.062 134.844 41.337 134.844Z" fill="#2F357B"/>
<path d="M65.795 157.769H104.525C105.8 157.769 106.834 156.735 106.834 155.46V138.849C106.834 137.573 105.8 136.54 104.525 136.54H65.795C64.52 136.54 63.486 137.574 63.486 138.849V155.46C63.486 156.735 64.52 157.769 65.795 157.769Z" fill="#2F357B"/>
<path d="M20.766 177.998H59.495C60.771 177.998 61.805 176.964 61.805 175.688V159.078C61.805 157.802 60.771 156.768 59.495 156.768H20.766C19.491 156.768 18.457 157.802 18.457 159.078V175.688C18.457 176.964 19.491 177.998 20.766 177.998Z" fill="#2F357B"/>
<path d="M63.987 204.122H102.717C103.992 204.122 105.026 203.088 105.026 201.813V185.203C105.026 183.927 103.992 182.894 102.716 182.894H63.987C62.712 182.894 61.678 183.927 61.678 185.203V201.813C61.678 203.088 62.712 204.122 63.987 204.122Z" fill="#2F357B"/>
<path d="M248.278 297.395H287.007C288.283 297.395 289.317 296.361 289.317 295.086V278.475C289.317 277.2 288.283 276.166 287.007 276.166H248.278C247.003 276.166 245.969 277.2 245.969 278.475V295.086C245.969 296.361 247.003 297.395 248.278 297.395Z" fill="#2F357B"/>
<path d="M203.776 297.395H242.505C243.781 297.395 244.815 296.361 244.815 295.086V278.475C244.815 277.2 243.781 276.166 242.505 276.166H203.776C202.501 276.166 201.466 277.2 201.466 278.475V295.086C201.466 296.361 202.501 297.395 203.776 297.395Z" fill="#2F357B"/>
<path d="M158.747 297.395H197.477C198.752 297.395 199.786 296.361 199.786 295.086V278.475C199.786 277.2 198.752 276.166 197.477 276.166H158.747C157.472 276.166 156.438 277.2 156.438 278.475V295.086C156.438 296.361 157.472 297.395 158.747 297.395Z" fill="#2F357B"/>
<path d="M113.718 297.395H152.448C153.723 297.395 154.757 296.361 154.757 295.086V278.475C154.757 277.2 153.723 276.166 152.448 276.166H113.718C112.443 276.166 111.409 277.2 111.409 278.475V295.086C111.409 296.361 112.443 297.395 113.718 297.395Z" fill="#2F357B"/>
<path d="M298.08 344.481H336.809C338.085 344.481 339.119 343.447 339.119 342.171V325.56C339.119 324.285 338.085 323.252 336.809 323.252H298.08C296.805 323.252 295.77 324.285 295.77 325.56V342.171C295.77 343.447 296.805 344.481 298.08 344.481Z" fill="#2F357B"/>
<path d="M278.105 321.388H316.834C318.11 321.388 319.144 320.354 319.144 319.078V302.467C319.144 301.192 318.11 300.159 316.834 300.159H278.105C276.83 300.159 275.796 301.192 275.796 302.467V319.078C275.796 320.354 276.83 321.388 278.105 321.388Z" fill="#2F357B"/>
<path d="M252.845 344.481H291.574C292.85 344.481 293.883 343.447 293.883 342.171V325.56C293.883 324.285 292.85 323.252 291.574 323.252H252.845C251.57 323.252 250.535 324.285 250.535 325.56V342.171C250.535 343.447 251.57 344.481 252.845 344.481Z" fill="#2F357B"/>
<path d="M208.343 344.481H247.072C248.348 344.481 249.382 343.447 249.382 342.171V325.56C249.382 324.285 248.348 323.252 247.072 323.252H208.343C207.068 323.252 206.033 324.285 206.033 325.56V342.171C206.033 343.447 207.068 344.481 208.343 344.481Z" fill="#2F357B"/>
<path d="M163.314 344.481H202.044C203.319 344.481 204.353 343.447 204.353 342.171V325.56C204.353 324.285 203.319 323.252 202.044 323.252H163.314C162.039 323.252 161.005 324.285 161.005 325.56V342.171C161.005 343.447 162.039 344.481 163.314 344.481Z" fill="#2F357B"/>
<path d="M118.285 344.481H157.015C158.29 344.481 159.324 343.447 159.324 342.171V325.56C159.324 324.285 158.29 323.252 157.015 323.252H118.285C117.01 323.252 115.976 324.285 115.976 325.56V342.171C115.976 343.447 117.01 344.481 118.285 344.481Z" fill="#2F357B"/>
<path d="M232.869 321.388H271.598C272.874 321.388 273.908 320.354 273.908 319.078V302.467C273.908 301.192 272.874 300.159 271.598 300.159H232.869C231.594 300.159 230.56 301.192 230.56 302.467V319.078C230.56 320.354 231.594 321.388 232.869 321.388Z" fill="#2F357B"/>
<path d="M188.367 321.388H227.097C228.372 321.388 229.406 320.354 229.406 319.078V302.467C229.406 301.192 228.372 300.159 227.097 300.159H188.367C187.092 300.159 186.058 301.192 186.058 302.467V319.078C186.058 320.354 187.092 321.388 188.367 321.388Z" fill="#2F357B"/>
<path d="M143.339 321.388H182.069C183.344 321.388 184.378 320.354 184.378 319.078V302.467C184.378 301.192 183.344 300.159 182.068 300.159H143.339C142.064 300.159 141.03 301.192 141.03 302.467V319.078C141.03 320.354 142.064 321.388 143.339 321.388Z" fill="#2F357B"/>
<path d="M98.31 321.388H137.039C138.315 321.388 139.349 320.354 139.349 319.078V302.467C139.349 301.192 138.315 300.159 137.039 300.159H98.31C97.035 300.159 96.001 301.192 96.001 302.467V319.078C96.001 320.354 97.035 321.388 98.31 321.388Z" fill="#2F357B"/>
<path d="M188.367 367.574H227.097C228.372 367.574 229.406 366.54 229.406 365.264V348.654C229.406 347.379 228.372 346.345 227.097 346.345H188.367C187.092 346.345 186.058 347.379 186.058 348.654V365.264C186.058 366.54 187.092 367.574 188.367 367.574Z" fill="#2F357B"/>
<path d="M143.339 367.574H182.068C183.344 367.574 184.378 366.54 184.378 365.264V348.653C184.378 347.378 183.344 346.344 182.069 346.344H143.339C142.064 346.344 141.03 347.378 141.03 348.653V365.264C141.03 366.54 142.064 367.574 143.339 367.574Z" fill="#2F357B"/>
<path d="M98.31 367.574H137.039C138.315 367.574 139.349 366.54 139.349 365.264V348.654C139.349 347.379 138.315 346.345 137.039 346.345H98.31C97.035 346.345 96.001 347.379 96.001 348.654V365.264C96.001 366.54 97.035 367.574 98.31 367.574Z" fill="#2F357B"/>
<path d="M73.256 389.272H111.985C113.261 389.272 114.295 388.237 114.295 386.962V370.351C114.295 369.076 113.261 368.042 111.985 368.042H73.256C71.981 368.042 70.947 369.076 70.947 370.351V386.962C70.947 388.237 71.981 389.272 73.256 389.272Z" fill="#2F357B"/>
<path d="M208.343 389.272H247.072C248.348 389.272 249.382 388.238 249.382 386.962V370.351C249.382 369.076 248.348 368.042 247.072 368.042H208.343C207.068 368.042 206.033 369.076 206.033 370.351V386.962C206.033 388.237 207.068 389.272 208.343 389.272Z" fill="#2F357B"/>
<path d="M163.314 389.272H202.044C203.319 389.272 204.353 388.237 204.353 386.962V370.351C204.353 369.076 203.319 368.042 202.044 368.042H163.314C162.039 368.042 161.005 369.076 161.005 370.351V386.962C161.005 388.237 162.039 389.272 163.314 389.272Z" fill="#2F357B"/>
<path d="M118.285 389.272H157.015C158.29 389.272 159.324 388.237 159.324 386.962V370.351C159.324 369.076 158.29 368.042 157.015 368.042H118.285C117.01 368.042 115.976 369.076 115.976 370.351V386.962C115.976 388.237 117.01 389.272 118.285 389.272Z" fill="#2F357B"/>
<path d="M188.367 412.365H227.097C228.372 412.365 229.406 411.332 229.406 410.056V393.445C229.406 392.17 228.372 391.136 227.097 391.136H188.367C187.092 391.136 186.058 392.17 186.058 393.445V410.056C186.058 411.332 187.092 412.365 188.367 412.365Z" fill="#2F357B"/>
<path d="M143.339 412.365H182.069C183.344 412.365 184.378 411.332 184.378 410.056V393.445C184.378 392.17 183.344 391.136 182.068 391.136H143.339C142.064 391.136 141.03 392.17 141.03 393.445V410.056C141.03 411.332 142.064 412.365 143.339 412.365Z" fill="#2F357B"/>
<path d="M98.31 412.365H137.039C138.315 412.365 139.349 411.332 139.349 410.056V393.445C139.349 392.17 138.315 391.136 137.039 391.136H98.31C97.035 391.136 96.001 392.17 96.001 393.445V410.056C96.001 411.332 97.035 412.365 98.31 412.365Z" fill="#2F357B"/>
</g>
<path d="M269.497 405.674C269.497 408.942 218.497 411.59 155.585 411.59C92.673 411.59 41.673 408.942 41.673 405.674C41.673 402.407 92.673 399.76 155.585 399.76C218.497 399.76 269.497 402.407 269.497 405.674Z" fill="#AAD6E6"/>
<path d="M375.958 406.674C375.958 408.557 356.092 410.082 331.585 410.082C307.078 410.082 287.212 408.557 287.212 406.674C287.212 404.793 307.078 403.268 331.585 403.268C356.092 403.268 375.958 404.793 375.958 406.674Z" fill="#AAD6E6"/>
<path d="M143.016 205.8C153.745 195.962 159.058 176.828 170.006 167.385C173.322 164.526 173.369 154.589 179.766 156.636C178.984 157.893 178.201 159.15 177.418 160.406C182.667 159.375 182.116 152.862 185.431 150.003C187.365 151.829 188.331 152.74 190.082 152.395C188.516 154.91 185.2 157.769 184.6 161.199L187.497 163.933C190.033 162.331 190.448 156.735 192.979 155.13C193.948 156.044 195.881 157.869 196.848 158.781C197.813 159.693 198.596 158.435 199.379 157.178C198.596 158.435 197.029 160.951 196.247 162.208C197.213 163.119 199.146 164.945 200.111 165.855C201.08 166.769 201.862 165.513 202.646 164.255C204.579 166.078 207.295 166.644 207.477 168.813C206.693 170.072 205.911 171.329 205.128 172.587C209.228 168.47 215.625 170.514 218.525 173.252C216.773 173.597 219.675 176.335 217.925 176.678C223.173 175.644 229.388 175.519 227.221 181.459C202.717 228.207 170.662 269.823 141.323 312.01C138.789 313.612 137.641 310.529 135.708 308.703C138.839 303.677 142.939 299.56 143.354 293.964C144.138 292.706 138.707 291.57 137.553 288.487C138.336 287.229 139.902 284.714 140.686 283.454C138.572 279.464 134.107 279.243 131.99 275.246C129.873 271.254 134.939 268.052 133.788 264.968C134.208 259.37 129.324 264.748 126.975 268.52C125.824 265.439 125.409 271.035 123.476 269.21C119.611 265.562 115.743 261.91 115.977 254.147C115.792 251.976 112.111 250.497 110.178 248.673C119.575 233.585 129.754 217.238 143.016 205.8Z" fill="#AAD6E6"/>
<path d="M46.804 288.855C59.523 269.06 73.675 249.772 88.018 230.733C89.071 228.954 90.193 227.206 90.171 226.211C91.896 221.473 87.02 228.089 84.374 232.233C84.331 230.263 82.61 234.997 81.685 234.406C80.706 233.781 79.732 233.147 79.346 231.745C79.107 231.817 78.86 231.872 78.598 231.887C78.801 231.6 79.004 231.311 79.207 231.023C79.178 230.757 79.166 230.468 79.174 230.153C77.059 232.041 76.353 234.922 74.383 236.911C73.485 236.278 73.037 235.964 71.96 236.539C73.216 234.758 75.548 232.404 76.356 230.306L75.013 229.358C73.307 230.823 72.32 234.126 70.616 235.591C70.167 235.274 69.271 234.642 68.823 234.325C68.375 234.009 67.746 234.9 67.119 235.789C67.746 234.9 69.003 233.118 69.631 232.229C69.183 231.913 68.286 231.279 67.839 230.963C67.389 230.647 66.762 231.537 66.133 232.428C65.237 231.796 63.712 232.054 63.893 230.848C64.521 229.957 65.149 229.067 65.777 228.177C62.816 231.422 59.319 231.622 57.974 230.674C59.052 230.099 57.706 229.15 58.783 228.577C55.554 230.298 51.878 231.705 53.942 227.829C74.573 195.723 98.971 164.939 121.845 134.413C123.55 132.949 123.817 134.473 124.713 135.105C122.203 138.664 119.242 141.909 118.255 145.212C117.627 146.103 120.675 145.587 120.946 147.109C120.318 148 119.062 149.781 118.433 150.672C119.149 152.51 121.75 151.677 122.466 153.518C123.183 155.355 119.775 158.283 120.044 159.806C119.52 161.556 120.283 161.21 121.394 160.109C127.845 149.892 134.059 138.899 140.995 130.311C144.104 126.461 146.664 118.373 150.739 117.087C149.858 118.467 148.975 119.849 148.094 121.23C152.127 117.973 153.386 112.942 156.494 109.094C157.42 109.685 157.881 109.98 159.227 108.892C157.463 111.656 154.354 115.504 153.052 118.564L154.437 119.449C156.666 116.98 158.387 112.246 160.613 109.777C161.076 110.073 162.001 110.663 162.464 110.958C162.926 111.252 163.808 109.872 164.689 108.492C163.808 109.872 162.042 112.637 161.161 114.017C161.623 114.312 162.548 114.903 163.009 115.197C163.473 115.493 164.354 114.112 165.238 112.729C166.161 113.319 167.969 112.528 167.548 114.204C166.665 115.587 165.783 116.968 164.901 118.35C167.25 115.272 169.623 113.567 171.465 112.859C173.996 108.724 176.601 104.731 179.574 101.44C181.795 98.981 182.876 93.21 186.36 92.85C185.774 93.767 185.188 94.685 184.602 95.603C187.747 93.736 188.119 90.094 190.34 87.635C191.265 88.226 191.727 88.522 192.777 87.898C191.604 89.734 189.383 92.192 188.672 94.325L190.058 95.211C191.695 93.669 192.528 90.324 194.162 88.782C194.626 89.078 195.551 89.668 196.013 89.963C196.474 90.258 197.061 89.341 197.647 88.423C197.061 89.341 195.888 91.178 195.302 92.096C195.764 92.391 196.689 92.981 197.15 93.276C197.614 93.572 198.2 92.654 198.786 91.734C199.711 92.325 201.222 91.998 201.097 93.211C200.511 94.13 199.925 95.047 199.338 95.966C202.147 92.588 205.63 92.227 207.017 93.113C205.968 93.736 207.355 94.622 206.306 95.243C209.452 93.375 213.06 91.801 211.177 95.768C192.045 128.79 169.089 160.664 147.644 192.21C146.009 193.752 145.672 192.241 144.747 191.651C147.091 187.981 149.9 184.603 150.734 181.258C151.32 180.339 148.299 180.994 147.958 179.486C148.545 178.567 149.718 176.731 150.304 175.812C149.505 174.009 146.945 174.96 146.145 173.155C145.344 171.353 148.614 168.271 148.275 166.762C149.112 163.415 145.716 167.713 143.958 170.467C143.954 170.451 143.95 170.443 143.946 170.428C134.426 185.037 124.734 199.58 115.032 214.056C115.146 214.197 115.253 214.349 115.328 214.543C116.045 216.381 112.637 219.309 112.906 220.832C111.916 224.137 115.506 220 117.389 217.329C117.658 218.851 118.645 215.548 119.542 216.181C121.335 217.445 123.128 218.71 121.961 223.219C121.782 224.426 123.754 224.484 124.65 225.116C117.115 235.798 108.952 247.371 99.625 256.788C92.001 264.741 86.334 276.871 78.634 284.644C76.302 287 74.957 292.714 71.46 292.914C72.088 292.024 72.716 291.133 73.343 290.245C70.115 291.964 69.576 295.585 67.244 297.939C66.347 297.306 65.9 296.989 64.822 297.564C66.078 295.783 68.41 293.43 69.218 291.333L67.875 290.384C66.169 291.849 65.182 295.151 63.479 296.616C63.03 296.299 62.133 295.667 61.684 295.351C61.237 295.035 60.609 295.926 59.981 296.816C60.609 295.926 61.866 294.143 62.492 293.254C62.045 292.938 61.148 292.306 60.7 291.991C60.251 291.674 59.624 292.563 58.995 293.455C58.099 292.823 56.575 293.081 56.755 291.875C57.384 290.983 58.011 290.093 58.639 289.204C55.678 292.448 52.181 292.649 50.836 291.7C51.914 291.126 50.569 290.176 51.645 289.603C48.416 291.325 44.74 292.731 46.804 288.855Z" fill="#34495E"/>
<path d="M193.244 407.884C192.109 407.884 191.038 407.2 190.598 406.081L120.146 226.79C119.572 225.329 120.29 223.679 121.751 223.105C123.21 222.53 124.862 223.25 125.436 224.711L195.888 404.002C196.462 405.463 195.744 407.113 194.282 407.687C193.942 407.821 193.589 407.884 193.244 407.884Z" fill="#2F357B"/>
<path d="M256.031 407.884C254.896 407.884 253.824 407.2 253.384 406.081L182.932 226.79C182.358 225.329 183.077 223.679 184.538 223.105C185.997 222.53 187.649 223.25 188.223 224.711L258.675 404.002C259.249 405.463 258.53 407.113 257.068 407.687C256.727 407.821 256.377 407.884 256.031 407.884Z" fill="#2F357B"/>
<path d="M199.436 259.686H135.009C133.439 259.686 132.167 258.414 132.167 256.844C132.167 255.275 133.439 254.002 135.009 254.002H199.436C201.005 254.002 202.277 255.275 202.277 256.844C202.277 258.414 201.005 259.686 199.436 259.686Z" fill="#2F357B"/>
<path d="M211.212 289.634H146.785C145.215 289.634 143.943 288.362 143.943 286.792C143.943 285.223 145.215 283.95 146.785 283.95H211.212C212.781 283.95 214.053 285.223 214.053 286.792C214.053 288.362 212.781 289.634 211.212 289.634Z" fill="#2F357B"/>
<path d="M223.21 318.238H158.784C157.214 318.238 155.942 316.966 155.942 315.396C155.942 313.827 157.214 312.554 158.784 312.554H223.21C224.78 312.554 226.052 313.827 226.052 315.396C226.052 316.966 224.78 318.238 223.21 318.238Z" fill="#2F357B"/>
<path d="M232.28 344.729H167.853C166.283 344.729 165.011 343.458 165.011 341.888C165.011 340.319 166.283 339.045 167.853 339.045H232.28C233.849 339.045 235.121 340.319 235.121 341.888C235.121 343.458 233.849 344.729 232.28 344.729Z" fill="#2F357B"/>
<path d="M242.613 371.221H178.186C176.616 371.221 175.344 369.949 175.344 368.379C175.344 366.81 176.616 365.537 178.186 365.537H242.613C244.182 365.537 245.454 366.81 245.454 368.379C245.454 369.949 244.182 371.221 242.613 371.221Z" fill="#2F357B"/>
<path d="M193.244 407.884C192.109 407.884 191.038 407.2 190.598 406.081L120.146 226.79C119.572 225.329 120.29 223.679 121.751 223.105C123.21 222.53 124.862 223.25 125.436 224.711L195.888 404.002C196.462 405.463 195.744 407.113 194.282 407.687C193.942 407.821 193.589 407.884 193.244 407.884Z" fill="#2F357B"/>
<path d="M256.03 407.884C254.895 407.884 253.824 407.2 253.384 406.081L182.932 226.79C182.358 225.329 183.076 223.679 184.537 223.105C185.996 222.53 187.648 223.25 188.222 224.711L258.675 404.002C259.249 405.463 258.53 407.113 257.068 407.687C256.727 407.821 256.376 407.884 256.03 407.884Z" fill="#2F357B"/>
<path d="M199.436 259.686H135.009C133.439 259.686 132.167 258.414 132.167 256.844C132.167 255.275 133.439 254.002 135.009 254.002H199.436C201.005 254.002 202.277 255.275 202.277 256.844C202.277 258.414 201.005 259.686 199.436 259.686Z" fill="#2F357B"/>
<path d="M211.212 289.634H146.785C145.215 289.634 143.943 288.362 143.943 286.792C143.943 285.223 145.215 283.95 146.785 283.95H211.212C212.781 283.95 214.053 285.223 214.053 286.792C214.053 288.362 212.781 289.634 211.212 289.634Z" fill="#2F357B"/>
<path d="M223.21 318.238H158.784C157.214 318.238 155.942 316.966 155.942 315.396C155.942 313.827 157.214 312.554 158.784 312.554H223.21C224.78 312.554 226.052 313.827 226.052 315.396C226.052 316.966 224.78 318.238 223.21 318.238Z" fill="#2F357B"/>
<path d="M232.28 344.729H167.853C166.283 344.729 165.011 343.458 165.011 341.888C165.011 340.319 166.283 339.045 167.853 339.045H232.28C233.849 339.045 235.121 340.319 235.121 341.888C235.121 343.458 233.849 344.729 232.28 344.729Z" fill="#2F357B"/>
<path d="M242.613 371.221H178.186C176.616 371.221 175.344 369.949 175.344 368.379C175.344 366.81 176.616 365.537 178.186 365.537H242.613C244.182 365.537 245.454 366.81 245.454 368.379C245.454 369.949 244.182 371.221 242.613 371.221Z" fill="#2F357B"/>
<path d="M114.323 407.884C113.978 407.884 113.626 407.821 113.285 407.687C111.823 407.113 111.105 405.463 111.679 404.002L182.13 224.711C182.704 223.251 184.353 222.532 185.815 223.105C187.276 223.679 187.995 225.329 187.421 226.79L116.969 406.081C116.529 407.2 115.457 407.884 114.323 407.884Z" fill="#2F357B"/>
<path d="M51.536 407.884C51.191 407.884 50.839 407.821 50.498 407.687C49.036 407.113 48.318 405.463 48.892 404.002L119.343 224.711C119.917 223.251 121.565 222.532 123.028 223.105C124.489 223.679 125.208 225.329 124.634 226.79L54.182 406.081C53.742 407.2 52.67 407.884 51.536 407.884Z" fill="#2F357B"/>
<path d="M172.557 259.686H108.131C106.561 259.686 105.289 258.414 105.289 256.844C105.289 255.275 106.561 254.002 108.131 254.002H172.557C174.126 254.002 175.399 255.275 175.399 256.844C175.399 258.414 174.126 259.686 172.557 259.686Z" fill="#2F357B"/>
<path d="M160.781 289.634H96.355C94.785 289.634 93.513 288.362 93.513 286.792C93.513 285.223 94.785 283.95 96.355 283.95H160.781C162.35 283.95 163.623 285.223 163.623 286.792C163.623 288.362 162.35 289.634 160.781 289.634Z" fill="#2F357B"/>
<path d="M148.782 318.238H84.355C82.785 318.238 81.513 316.966 81.513 315.396C81.513 313.827 82.785 312.554 84.355 312.554H148.782C150.351 312.554 151.623 313.827 151.623 315.396C151.623 316.966 150.351 318.238 148.782 318.238Z" fill="#2F357B"/>
<path d="M139.712 344.729H75.286C73.716 344.729 72.444 343.458 72.444 341.888C72.444 340.319 73.716 339.045 75.286 339.045H139.712C141.282 339.045 142.554 340.319 142.554 341.888C142.554 343.458 141.282 344.729 139.712 344.729Z" fill="#2F357B"/>
<path d="M129.38 371.221H64.953C63.383 371.221 62.111 369.949 62.111 368.379C62.111 366.81 63.383 365.537 64.953 365.537H129.38C130.949 365.537 132.221 366.81 132.221 368.379C132.221 369.949 130.949 371.221 129.38 371.221Z" fill="#2F357B"/>
<path d="M319.44 358.684C318.504 356.35 317.09 354.224 315.367 352.342C315.336 353.48 315.106 354.606 314.472 355.551C314.318 355.778 312.852 351.349 312.097 349.357C311.641 349.012 311.18 348.683 310.703 348.371C309.615 347.651 308.453 347.008 307.236 346.455C307.62 348.489 307.755 350.535 307.651 352.613C307.63 353.03 306.926 353.024 306.945 352.6C307.06 350.406 306.899 348.255 306.46 346.106C305.486 345.69 304.478 345.317 303.449 344.995C304.307 347.2 304.758 349.481 304.817 351.852C304.824 352.277 304.127 352.262 304.112 351.844C304.052 349.388 303.564 347.026 302.622 344.747C301.672 344.473 300.697 344.24 299.711 344.051C299.79 345.664 299.711 347.256 299.303 348.857C299.22 349.188 297.959 345.394 297.509 343.693C296.591 343.562 295.666 343.487 294.731 343.427C294.713 344.481 294.613 345.527 294.328 346.558C294.259 346.804 292.491 344.42 291.804 343.351C288.885 343.383 285.998 343.732 283.287 344.41C284.408 346.057 285.345 347.742 285.566 349.734C285.607 350.15 284.911 350.141 284.86 349.721C284.655 347.806 283.672 346.166 282.585 344.592C281.845 344.791 281.122 345.02 280.418 345.27C277.814 346.201 271.834 349.067 272.499 352.504C272.501 352.537 272.508 352.568 272.518 352.6C273.3 355.758 281.473 355.729 284.155 356.094C290.089 356.902 295.898 357.754 300.92 361.084C306.838 365.011 312.27 369.822 317.647 374.38C317.987 374.671 318.379 374.698 318.714 374.577C318.775 374.562 319.033 373.559 319.319 372.035C319.984 368.462 320.774 362.007 319.44 358.684Z" fill="#509CAB"/>
<path d="M314.391 370.772C317.012 372.633 318.673 374.726 319.856 377.687C321.284 381.261 322.705 384.993 323.466 388.73C323.716 389.96 323.939 391.192 324.15 392.428" stroke="#271B3D" stroke-width="0.5" stroke-linecap="round" stroke-linejoin="round"/>
<path d="M272.518 352.599C273.3 355.758 281.473 355.73 284.156 356.094C290.09 356.902 295.898 357.754 300.92 361.085C306.838 365.012 312.27 369.822 317.647 374.381C317.989 374.671 318.379 374.699 318.714 374.578C318.774 374.562 313.983 360.565 304.524 354.917C295.244 349.374 283.2 351.656 272.518 352.599Z" fill="#265652"/>
<path d="M331.024 342.208C330.985 341.85 330.946 341.497 330.899 341.139C329.589 343.047 328.141 344.844 326.273 346.346C326.014 346.555 328.668 339.609 330.008 336.386C329.527 334.633 328.827 332.933 327.745 331.361C325.499 328.094 322.293 325.259 319.221 322.675C319.098 322.568 318.959 322.469 318.835 322.361C318.567 324.074 318.06 325.736 317.262 327.308C317.124 327.584 316.647 322.746 316.527 320.516C315.777 319.948 315.024 319.38 314.254 318.841C313.236 318.113 311.887 316.802 310.487 317.298C309.123 317.769 307.179 323.81 307.133 325.435C307.111 326.129 307.112 326.833 307.127 327.536C308.763 329.037 310.667 330.222 312.797 331.089C313.208 331.255 312.923 331.848 312.504 331.684C310.521 330.875 308.726 329.792 307.15 328.452C307.25 331.269 307.585 334.11 307.989 336.879C308.122 337.004 308.256 337.131 308.403 337.248C309.929 338.509 313.485 340.973 313.195 341.035C311.628 341.353 310.075 341.132 308.636 340.581C309.161 343.048 309.899 345.471 310.977 347.773C313.238 349.958 318.959 353.663 318.64 353.701C317.321 353.864 316.024 353.789 314.728 353.641C315.877 355.009 317.165 356.277 318.577 357.41C321.483 359.765 325.213 361.365 327.232 364.548C327.276 364.623 327.343 364.662 327.408 364.67C327.477 364.854 327.742 364.961 327.889 364.762C332.684 358.157 331.857 349.759 331.024 342.208Z" fill="#509CAB"/>
<path d="M320.841 342.46C318.812 337.08 315.784 329.564 313.349 324.325" stroke="#271B3D" stroke-width="0.5" stroke-linecap="round" stroke-linejoin="round"/>
<path d="M322.12 346.046C321.701 344.863 320.757 342.203 320.318 341.026C320.407 341.006 320.488 340.952 320.537 340.849C321.827 338.064 322.633 335.157 322.942 332.132" stroke="#271B3D" stroke-width="0.5" stroke-linecap="round" stroke-linejoin="round"/>
<path d="M329.58 392.264C329.813 392.269 330.045 392.27 330.277 392.276C330.243 383.033 329.592 373.817 327.66 364.757C327.707 364.7 327.729 364.624 327.704 364.528C327.458 363.568 327.205 362.609 326.947 361.653C326.588 360.204 326.195 358.759 325.764 357.32C325.748 357.267 323.266 349.302 321.898 345.404C321.944 345.375 321.984 345.337 322.016 345.283C323.087 343.398 323.784 341.394 324.105 339.279" stroke="#271B3D" stroke-width="0.5" stroke-linecap="round" stroke-linejoin="round"/>
<path d="M321.074 355.679C322.177 356.702 324.433 358.035 325.983 358.067" stroke="#271B3D" stroke-width="0.5" stroke-linecap="round" stroke-linejoin="round"/>
<path d="M309.68 334.699C312.299 336.079 315.737 337.43 318.822 337.248C318.833 337.247 318.096 337.197 318.106 337.197" stroke="#271B3D" stroke-width="0.5" stroke-linecap="round" stroke-linejoin="round"/>
<path d="M345.663 355.298C342.835 360.061 339.99 364.854 338.05 370.013C336.05 375.33 335.325 380.931 334.642 386.51C334.42 388.332 334.2 390.154 333.986 391.977" stroke="#271B3D" stroke-width="0.5" stroke-linecap="round" stroke-linejoin="round"/>
<path d="M375.218 333.102C375.216 333.07 375.213 333.038 375.202 333.004C374.674 329.547 368.029 328.536 365.243 328.399C364.49 328.363 363.723 328.355 362.954 328.378C362.453 330.188 362.074 332.029 362.526 333.909C362.618 334.324 361.961 334.532 361.861 334.124C361.397 332.166 361.718 330.295 362.226 328.406C359.424 328.54 356.564 329.038 353.781 329.846C353.49 331.059 352.618 333.835 352.47 333.62C351.851 332.722 351.401 331.755 351.028 330.758C350.161 331.083 349.309 331.421 348.481 331.809C348.629 333.556 348.711 337.525 348.521 337.234C347.593 335.828 346.98 334.339 346.51 332.783C345.639 333.245 344.791 333.747 343.981 334.28C343.855 336.718 344.19 339.104 344.962 341.458C345.09 341.859 344.431 342.073 344.297 341.667C343.551 339.396 343.209 337.096 343.279 334.752C342.409 335.355 341.581 335.999 340.795 336.675C341.105 338.845 341.677 340.935 342.527 342.989C342.688 343.389 342.024 343.596 341.863 343.205C341.062 341.259 340.498 339.273 340.175 337.23C339.208 338.105 338.322 339.048 337.531 340.047C337.184 340.48 336.859 340.926 336.542 341.384C336.497 343.496 336.601 348.129 336.377 347.958C335.457 347.242 334.858 346.237 334.444 345.164C333.444 347.448 332.819 349.875 332.718 352.364C332.574 355.908 335.505 361.819 337.343 365.026C338.128 366.394 338.711 367.275 338.774 367.271C339.133 367.29 339.494 367.151 339.72 366.777C343.286 360.897 346.818 354.763 351.112 349.328C354.756 344.72 359.986 342.241 365.347 339.766C367.772 338.651 375.543 336.33 375.218 333.102Z" fill="#509CAB"/>
<path d="M345.61 344.496C338.535 352.586 338.711 367.275 338.773 367.272C339.133 367.291 339.495 367.151 339.72 366.778C343.286 360.897 346.82 354.763 351.113 349.328C354.757 344.72 359.986 342.241 365.348 339.767C367.771 338.651 375.543 336.33 375.218 333.102C364.757 335.274 352.55 336.562 345.61 344.496Z" fill="#265652"/>
<path d="M391.83 355.089C391.305 353.831 389.398 353.819 388.164 353.636C387.236 353.489 386.3 353.373 385.363 353.256C383.532 354.672 379.418 357.598 379.546 357.322C380.26 355.743 381.238 354.293 382.409 352.968C382.245 352.957 382.077 352.932 381.911 352.921C377.879 352.624 373.563 352.407 369.53 353.113C367.59 353.453 365.796 354.127 364.103 354.984C362.442 358.031 358.713 364.439 358.708 364.129C358.671 361.888 359.139 359.727 359.788 357.582C359.475 357.791 359.174 358.002 358.866 358.218C352.387 362.728 345.246 367.809 343.178 375.406C343.118 375.637 343.375 375.74 343.566 375.663C343.613 375.7 343.688 375.719 343.775 375.696C347.594 374.898 351.28 376.288 355.025 376.631C356.836 376.804 358.672 376.805 360.496 376.648C359.535 375.89 358.631 375.085 357.9 374.105C357.721 373.867 364.361 375.166 367.553 375.196C370.065 374.363 372.45 373.228 374.733 371.921C373.364 371.337 372.176 370.462 371.405 369.211C371.264 368.979 375.52 369.678 377.503 369.842C377.692 369.859 377.878 369.863 378.063 369.867C380.503 368.277 382.955 366.594 385.235 364.771C383.153 364.627 381.134 364.169 379.207 363.402C378.804 363.234 379.084 362.647 379.482 362.81C381.551 363.635 383.725 364.098 385.969 364.174C386.531 363.712 387.085 363.241 387.616 362.761C388.865 361.641 392.348 356.306 391.83 355.089Z" fill="#509CAB"/>
<path d="M365.677 360.823C364.224 362.453 363.102 364.258 362.318 366.228C362.295 366.286 362.293 366.339 362.3 366.388C355.911 369.147 340.071 372.39 336.736 386.374" stroke="#271B3D" stroke-width="0.5" stroke-linecap="round" stroke-linejoin="round"/>
<path d="M372.053 356.803C369.877 359.036 366.83 361.816 366.642 364.818" stroke="#271B3D" stroke-width="0.5" stroke-linecap="round" stroke-linejoin="round"/>
<path d="M361.511 366.714C365.73 365.073 380.375 359.934 384.679 358.498" stroke="#271B3D" stroke-width="0.5" stroke-linecap="round" stroke-linejoin="round"/>
<path d="M371.222 363.391C371.228 363.401 371.228 363.409 371.236 363.416C373.103 365.577 375.884 366.482 378.675 367.288" stroke="#271B3D" stroke-width="0.5" stroke-linecap="round" stroke-linejoin="round"/>
<path d="M349.423 371.541C350.789 372.122 352.255 372.442 353.776 372.485" stroke="#271B3D" stroke-width="0.5" stroke-linecap="round" stroke-linejoin="round"/>
<path d="M312.54 393.025C312.54 394.248 312.678 395.444 312.941 396.594C313.894 400.773 316.486 404.384 320.06 406.812H341.392C344.962 404.384 347.554 400.773 348.508 396.594C348.77 395.444 348.908 394.248 348.908 393.025C348.908 391.75 348.758 390.506 348.472 389.314C348.234 388.296 347.894 387.315 347.471 386.378H313.981C313.554 387.315 313.217 388.296 312.977 389.314C312.69 390.506 312.54 391.75 312.54 393.025Z" fill="#4D5A7C"/>
<path d="M340.831 386.378H347.472C347.895 387.315 348.235 388.296 348.473 389.315C348.759 390.507 348.908 391.75 348.908 393.025C348.908 394.248 348.771 395.444 348.509 396.595C347.555 400.774 344.963 404.384 341.393 406.812H338.44C342.011 404.384 343.675 393.3 340.831 386.378Z" fill="#242A3B" fill-opacity="0.31"/>
<path d="M315.267 388.064C315.573 386.867 317.542 387.375 317.237 388.573C316.413 391.803 315.939 395.264 317.691 398.308C318.315 399.393 316.551 400.359 315.927 399.274C313.901 395.753 314.309 391.82 315.267 388.064Z" fill="#FEFEFE"/>
<path d="M104.688 244.416L108.442 238.013C108.442 238.013 105.994 222.012 92.7594 224.236C92.7594 224.236 82.628 225.643 84.5494 242.272C86.4707 258.899 104.688 244.416 104.688 244.416Z" stroke="#1E4587" stroke-miterlimit="10"/>
<path d="M108.944 238.062L112.263 266.785C112.362 267.635 106.899 269.524 99.9843 270.323C93.0693 271.122 87.3182 270.529 87.2199 269.678L83.901 240.955L108.944 238.062Z" fill="#FEC920"/>
<path d="M83.901 240.955C83.9992 241.805 89.6854 241.845 96.5994 241.046C103.515 240.247 109.043 238.911 108.944 238.062C108.846 237.212 103.16 237.172 96.244 237.971C89.33 238.77 83.8029 240.106 83.901 240.955Z" fill="#FEAB0F"/>
<path d="M106.284 239.095C104.47 239.797 100.498 240.597 95.8346 241.136C91.1726 241.675 87.1214 241.801 85.1947 241.532C87.0093 240.831 90.9828 240.031 95.6448 239.493C100.308 238.954 104.358 238.826 106.284 239.095Z" fill="#74B5C9"/>
<path d="M111.865 263.351L112.262 266.785C112.36 267.634 106.898 269.524 99.9832 270.323C93.0682 271.122 87.318 270.528 87.2199 269.678L84.2164 243.685C87.6958 256.129 96.0021 264.74 111.865 263.351Z" fill="#FEC91A"/>
<path d="M106.868 238.726C107.943 238.41 109.031 239.172 109.081 240.292C109.203 243.053 109.066 246.043 107.9 245.203C106.197 243.974 105.78 239.544 104.524 241.398C103.381 243.085 102.109 248.506 100.84 244.248C99.5708 239.99 97.9 240.812 97.5596 242.144C97.1137 243.886 98.7417 249.019 96.7708 249.247C94.4026 249.521 94.5956 242.889 92.6791 242.707C90.9477 242.542 91.9435 244.766 90.7285 246.918C89.2645 249.511 88.1393 243.232 87.1201 243.35C84.9247 243.603 85.3602 246.928 84.4198 245.437C83.8984 244.61 83.7766 243.32 83.7718 242.337C83.768 241.599 84.3896 241.011 85.128 241.05C88.4664 241.227 97.7693 241.406 106.868 238.726Z" fill="#AAD6E6"/>
<path d="M125.459 174.099L123.566 169.263C123.566 169.263 120.561 170.074 117.634 175.74C114.708 181.406 107.368 208.806 96.7028 217.235C96.7028 217.235 94.1452 220.467 91.9644 221.979C91.0916 222.583 90.648 223.662 90.6365 224.737C90.617 226.727 97.8923 221.502 99.9824 220.182C99.9824 220.182 115.453 212.278 121.391 201.851C127.329 191.425 125.459 174.099 125.459 174.099Z" fill="#3D8283"/>
<path d="M125.458 174.099L123.566 169.263C123.566 169.263 120.561 170.074 117.634 175.74C114.708 181.406 107.367 208.807 96.7019 217.236C96.7019 217.236 94.1442 220.467 91.9634 221.979C91.3002 222.438 99.1846 221.774 99.5866 219.765C99.5866 219.765 115.452 212.279 121.39 201.852C127.328 191.426 125.458 174.099 125.458 174.099Z" fill="#509CAB"/>
<path d="M91.9623 221.978C94.1442 220.467 96.7009 217.236 96.7009 217.236C99.1655 215.288 101.451 212.319 103.548 208.846C105.728 209.79 108.397 211.396 109.817 213.935C104.634 217.802 99.0604 220.878 99.0604 220.878C97.6125 224.315 96.5989 223.607 96.5989 223.607C95.5172 223.413 94.7954 224.21 94.325 225.173C93.3597 227.147 90.2805 226.152 90.7126 223.998C90.8739 223.189 91.2916 222.443 91.9623 221.978Z" fill="#FCBAA9"/>
<path d="M136.68 223.424L129.81 256.113C129.81 256.113 119.297 300.572 119.219 303.939C119.14 307.306 113.229 310.335 111.565 309.454C109.901 308.573 112.088 305.415 112.147 302.889C112.206 300.364 108.852 278.998 109.899 270.178C110.674 263.654 113.292 257.175 114.602 254.242C115.095 253.14 115.292 251.935 115.186 250.733C114.535 243.358 112.551 216.45 117.451 208.235C123.149 198.682 136.68 223.424 136.68 223.424Z" fill="#F96967"/>
<path d="M136.68 223.424L129.81 256.113C129.81 256.113 119.297 300.572 119.219 303.939C119.14 307.306 117.544 311.812 111.565 309.454C109.813 308.764 112.088 305.415 112.147 302.889C112.206 300.364 108.852 278.998 109.899 270.178C110.674 263.654 113.292 257.175 114.602 254.242C115.095 253.14 115.292 251.935 115.186 250.733C114.535 243.358 112.551 216.45 117.451 208.235C123.149 198.682 136.68 223.424 136.68 223.424Z" fill="#1E4587"/>
<path d="M119.291 303.246C119.863 297.74 124.931 262.264 125.715 257.755C126.562 252.879 123.804 222.172 123.804 222.172L126.839 218.773L133.991 218.94C135.629 221.503 136.68 223.424 136.68 223.424L129.81 256.114C129.81 256.114 120.216 296.686 119.291 303.246Z" fill="#2E2E2E" fill-opacity="0.3"/>
<path d="M111.866 304.381C118.392 306.386 119.217 303.939 119.217 303.939C119.138 307.307 129.349 311.904 128.884 313.789C128.418 315.673 112.074 312.343 110.409 311.462C109.029 310.732 111.089 307.056 111.866 304.381Z" fill="#0B0D13"/>
<path d="M113.711 304.861C113.457 306.153 113.468 308.432 115.84 310.479C118.445 312.729 124.929 313.811 128.193 314.227C125.011 314.971 111.892 312.248 110.41 311.463C109.029 310.733 111.089 307.058 111.866 304.382C112.546 304.591 113.149 304.742 113.711 304.861Z" fill="#0B0D13"/>
<path d="M167.961 232.145C167.746 230.35 167.943 232.145 167.943 232.145C168.077 229.591 167.823 226.934 164.828 223.383C159.817 217.442 145.177 203.537 125.646 204.379L115.222 213.358C115.222 213.358 117.565 216.501 121.805 220.268C125.518 223.565 139.126 231.191 147.165 234.399C155.205 237.607 168.595 237.428 167.961 232.145Z" fill="#1E4587"/>
<path d="M167.947 232.254L167.965 232.254C167.965 232.254 168.792 236.064 159.067 253.526C159.067 253.526 146.078 275.49 147.105 278.83C147.105 278.83 147.189 281.99 152.369 283.375C157.549 284.759 157.966 287.138 156.546 287.105C155.125 287.072 139.18 286.858 138.42 285.576C137.66 284.295 140.032 280.088 140.087 277.72C140.263 270.168 140.637 262.582 142.032 255.144C142.385 253.26 145.109 241.116 147.924 236.808C148.518 235.899 148.147 234.684 147.144 234.265C152.555 221.393 167.887 228.308 167.947 232.254Z" fill="#1E4587"/>
<path d="M147.105 278.83C147.854 280.584 150.8 282.956 152.369 283.375C157.549 284.76 157.966 287.138 156.546 287.105C155.125 287.072 139.179 286.858 138.419 285.576C137.915 284.726 139.31 280.698 139.973 278.664C143.788 279.774 145.261 280.051 147.105 278.83Z" fill="#0B0D13"/>
<path d="M138.42 285.576C137.916 284.726 139.311 280.698 139.973 278.664C140.049 278.685 140.117 278.705 140.191 278.726C140.474 280.623 141.527 284.588 145.412 285.137C150.546 285.864 156.547 287.104 156.547 287.104C155.126 287.071 139.18 286.858 138.42 285.576Z" fill="#0B0D13"/>
<path d="M147.144 234.265C147.144 234.265 152.411 235.906 150.635 237.572C144.124 243.676 140.767 260.264 140.428 268.991C140.428 268.991 141.292 253.08 145.109 243.454C145.109 243.454 146.531 238.896 147.925 236.807C147.925 236.807 148.852 235.007 147.144 234.265Z" fill="#2E2E2E" fill-opacity="0.3"/>
<path d="M122.309 163.144C125.146 166.091 123.831 171.095 123.831 171.095C123.831 171.095 130.826 170.45 133.883 169.678L134.619 167.546C133.293 166.538 132.217 165.482 132.363 162.792C133.359 162.236 119.879 162.32 122.309 163.144Z" fill="#FCBAA9"/>
<path d="M122.31 163.144C125.147 166.091 123.831 171.095 123.831 171.095C123.831 171.095 130.826 170.45 133.883 169.678L134.619 167.546C133.293 166.538 132.217 165.482 132.363 162.792C133.359 162.236 119.88 162.32 122.31 163.144Z" fill="#FC843F"/>
<path d="M134.964 160.497C124.848 162.043 119.502 150.387 119.502 150.387L115.317 155.416L116.319 159.105C118.088 161.197 119.871 162.412 122.31 163.209C125.179 166.124 131.3 163.264 132.358 162.745C133.348 162.177 134.233 161.427 134.964 160.497Z" fill="#FCBAA9"/>
<path d="M120.993 142.733C120.993 142.733 124.453 142.138 127.368 144.151C130.284 146.163 131.861 148.942 133.148 149.502C134.475 150.081 135.187 150.116 135.187 150.116C135.187 150.116 135.604 151.069 134.702 152.229C134.702 152.229 137.485 156.333 135.676 159.449C133.467 163.252 129.007 164.705 124.753 163.841C120.485 162.976 118.069 161.531 115.45 158.013C112.831 154.494 112.645 143.915 120.993 142.733Z" fill="#FCBAA9"/>
<path d="M134.964 160.498C124.848 162.044 119.502 150.388 119.502 150.388L115.317 155.416L116.319 159.105C118.088 161.197 119.871 162.412 122.31 163.209C125.179 166.124 131.822 163.149 132.358 162.745C133.348 162.177 134.233 161.428 134.964 160.498Z" fill="#FC843F"/>
<path d="M119.257 146.099C119.257 146.099 125.801 142.307 132.796 141.46C132.796 141.46 132.839 142.565 129.414 143.858C127.709 144.501 133.026 143.486 133.026 143.486C133.026 143.486 132.104 147.847 122.272 151.004C112.44 154.162 119.257 146.099 119.257 146.099Z" fill="#0B0D13"/>
<path d="M115.536 147.48C115.536 147.48 123.312 146.019 119.564 155.658C118.195 159.177 125.801 162.295 124.631 166.265C124.015 168.357 122.99 169.158 122.99 169.158C122.99 169.158 123.271 167.758 119.84 165.606C116.409 163.455 112.851 160.618 112.384 155.584C111.915 150.551 115.536 147.48 115.536 147.48Z" fill="#0B0D13"/>
<path d="M119.807 163.167C120.521 164.477 120.947 165.602 121.186 166.557C120.816 166.26 120.378 165.943 119.84 165.607C116.41 163.455 112.851 160.618 112.384 155.585C112.38 155.537 112.381 155.493 112.377 155.445L126.487 145.277C126.487 145.277 114.987 154.323 119.807 163.167Z" fill="#0B0D13"/>
<path d="M132.046 138.765C132.046 138.765 119.581 153.921 111.476 160.639C111.199 160.868 110.804 160.564 110.948 160.235L111.356 159.304C111.572 158.811 111.519 158.244 111.212 157.8C109.655 155.553 105.47 148.119 112.848 141.64C115.42 139.382 119.628 137.385 125.112 140.277C126.205 140.853 127.548 140.631 128.442 139.778C130.022 138.269 132.286 136.248 132.814 136.511C133.642 136.926 132.046 138.765 132.046 138.765Z" fill="#FEC920"/>
<path d="M120.206 149.779C115.021 152.644 111.237 149.726 109.095 147.068C107.575 151.811 110.082 156.171 111.212 157.801C111.518 158.245 111.572 158.811 111.355 159.304L110.948 160.235C110.803 160.564 111.198 160.869 111.475 160.639C115.63 157.196 120.928 151.537 125.108 146.836C123.958 147.611 122.381 148.578 120.206 149.779Z" fill="#FEC91A"/>
<path d="M121.093 155C121.093 155 117.758 154.37 117.73 156.446C117.701 158.524 120.188 160.335 121.68 159.586" fill="#FC843F"/>
<path d="M121.093 155C121.093 155 117.758 154.37 117.73 156.446C117.701 158.524 120.188 160.335 121.68 159.586" fill="#FCBAA9"/>
<path d="M121.093 155C121.093 155 117.758 154.37 117.73 156.446C117.701 158.524 120.188 160.335 121.68 159.586" fill="#FC843F"/>
<path d="M137.404 165.763C133.48 167.595 129.153 168.884 124.366 169.183C124.366 169.183 122.024 169.949 121.833 172.917C121.642 175.884 116.148 200.748 115.156 212.605C115.156 212.605 127.286 220.031 146.07 209.548L145.121 181.52C145.121 181.52 145.647 174.65 144.707 172.38C141.652 165.007 137.404 165.763 137.404 165.763Z" fill="#509CAB"/>
<path d="M145.121 181.52L146.07 209.548C146.07 209.548 130.037 220.024 115.156 212.604C115.156 212.604 140.955 208.282 145.121 181.52Z" fill="#3D8283" fill-opacity="0.19"/>
<path d="M144.336 176.375C145.373 176.922 146.669 176.564 147.271 175.542L174.454 129.379C175.072 128.327 174.723 126.973 173.671 126.353C172.626 125.735 171.264 126.084 170.644 127.136L143.461 173.298C142.841 174.35 143.193 175.704 144.245 176.324C144.274 176.342 144.305 176.358 144.336 176.375Z" fill="#0B0D13"/>
<path d="M170.645 127.136C171.133 126.308 172.081 125.924 172.972 126.096C172.891 126.191 172.812 126.291 172.747 126.402L145.564 172.564C144.945 173.617 145.295 174.971 146.347 175.591C146.376 175.609 146.408 175.626 146.438 175.642C146.635 175.745 146.841 175.807 147.049 175.846C146.388 176.627 145.262 176.865 144.336 176.376C144.306 176.36 144.275 176.343 144.246 176.325C143.193 175.705 142.843 174.351 143.462 173.298L170.645 127.136Z" fill="#0B0D13"/>
<path d="M161.431 121.679L183.4 134.617C184.097 135.028 184.996 134.792 185.405 134.095L188.709 128.442C189.116 127.746 188.883 126.852 188.19 126.444L185.436 124.823L166.218 113.506C165.522 113.095 164.623 113.33 164.215 114.029L160.909 119.683C160.502 120.377 160.737 121.27 161.431 121.679Z" fill="#FEC920"/>
<path d="M188.285 130.343L189.149 128.826C189.724 127.815 189.372 126.529 188.362 125.95L166.898 113.663C165.389 112.866 164.641 113.38 163.989 114.32L163.17 115.498C162.786 116.052 163.035 116.862 163.69 117.022C163.989 117.095 164.309 117.018 164.59 116.608C165.392 115.438 166.798 116.065 165.715 117.847C163.732 121.103 164.33 122.791 166.004 122.292C167.676 121.793 169.87 117.986 169.771 119.22C169.67 120.455 168.291 122.318 170.261 123.15C171.37 123.617 173.441 119.932 172.978 121.159C172.513 122.385 172.272 123.422 173.164 123.708C174.055 123.996 174.333 123.066 174.839 123.613C175.682 124.522 173.971 127.491 175.655 128.386C178.275 129.778 179.303 124.62 180.102 125.778C180.901 126.936 180.797 128.498 182.337 128.859C183.93 129.232 185.815 125.769 186.658 127.816C187.179 129.083 186.556 132.434 188.285 130.343Z" fill="#AAD6E6"/>
<path d="M163.316 168.933C155.624 169.176 146.372 169.168 137.749 165.449C132.811 165.299 129.472 179.025 138.678 184.179L139.324 184.451C139.324 184.451 147.081 186.547 158.898 183.397C165.273 182.671 169.236 171.824 163.316 168.933Z" fill="#509CAB"/>
<path d="M165.299 170.659C156.681 172.884 147.008 173.158 139.971 167.027L140.466 166.507C148.285 169.176 156.427 169.149 163.317 168.932C164.94 169.686 164.955 170.147 165.299 170.659Z" fill="#3D8283" fill-opacity="0.18"/>
<path d="M166.769 137.419C166.045 136.627 164.74 137.031 164.526 138.082C164.241 139.474 163.504 141.086 161.678 141.907C158.077 143.528 159.677 144.245 161.492 147.429C161.492 147.429 160.468 161.553 155.499 169.89C151.534 176.195 162.96 187.472 165.854 179.583C167.907 172.309 169.03 162.83 167.531 150.974C167.337 149.437 167.04 147.896 166.448 146.463C166.251 145.988 166.192 145.321 166.742 144.552C168.616 141.93 168.929 139.782 166.769 137.419Z" fill="#509CAB"/>
<path d="M161.492 147.428C161.492 147.428 161.559 163.58 155.272 175.841C155.026 175.13 153.911 171.832 155.502 169.89C160.469 161.553 161.492 147.428 161.492 147.428Z" fill="#3D8283" fill-opacity="0.18"/>
<path d="M161.491 147.428C159.676 144.244 158.077 143.527 161.678 141.907C163.502 141.087 164.242 139.474 164.527 138.082C164.741 137.032 166.045 136.627 166.769 137.419C168.929 139.783 168.615 141.93 166.742 144.552C166.192 145.32 166.252 145.988 166.448 146.462C167.042 147.894 167.336 149.436 167.531 150.973C167.857 153.553 168.046 156.006 168.141 158.362C164.36 158.439 161.673 157.706 160.051 157.049C161.175 151.764 161.491 147.428 161.491 147.428Z" fill="#FCBAA9"/>
</svg>
