<svg xmlns="http://www.w3.org/2000/svg" width="500" height="500" fill="none"><g fill="#2F357B" opacity=".08"><path d="M221.453 134.845h38.73a2.31 2.31 0 0 0 2.309-2.309v-16.611a2.309 2.309 0 0 0-2.309-2.309h-38.73a2.309 2.309 0 0 0-2.309 2.309v16.611a2.31 2.31 0 0 0 2.309 2.309ZM176.424 134.844h38.729a2.31 2.31 0 0 0 2.31-2.31v-16.609a2.309 2.309 0 0 0-2.31-2.309h-38.729a2.31 2.31 0 0 0-2.31 2.309v16.61a2.31 2.31 0 0 0 2.31 2.309ZM131.395 134.845h38.73a2.31 2.31 0 0 0 2.309-2.309v-16.611a2.309 2.309 0 0 0-2.309-2.309h-38.73a2.309 2.309 0 0 0-2.309 2.309v16.611a2.31 2.31 0 0 0 2.309 2.309ZM156.449 111.751h38.73a2.31 2.31 0 0 0 2.309-2.309v-16.61a2.31 2.31 0 0 0-2.309-2.309h-38.73a2.31 2.31 0 0 0-2.309 2.309v16.61a2.31 2.31 0 0 0 2.309 2.309ZM245.98 157.937h38.73a2.31 2.31 0 0 0 2.309-2.309v-16.61a2.309 2.309 0 0 0-2.309-2.309h-38.73a2.309 2.309 0 0 0-2.309 2.309v16.61a2.31 2.31 0 0 0 2.309 2.309ZM201.477 157.937h38.729a2.31 2.31 0 0 0 2.31-2.309v-16.61a2.309 2.309 0 0 0-2.31-2.309h-38.729a2.31 2.31 0 0 0-2.31 2.309v16.61a2.31 2.31 0 0 0 2.31 2.309ZM156.448 157.937h38.73a2.31 2.31 0 0 0 2.309-2.309v-16.61a2.309 2.309 0 0 0-2.309-2.309h-38.73a2.309 2.309 0 0 0-2.309 2.309v16.61a2.31 2.31 0 0 0 2.309 2.309ZM111.42 157.937h38.73a2.31 2.31 0 0 0 2.309-2.309v-16.61a2.309 2.309 0 0 0-2.309-2.309h-38.73a2.309 2.309 0 0 0-2.309 2.309v16.61a2.31 2.31 0 0 0 2.309 2.309ZM244.664 204.122h38.73a2.31 2.31 0 0 0 2.309-2.309v-16.61a2.31 2.31 0 0 0-2.31-2.309h-38.729a2.31 2.31 0 0 0-2.31 2.309v16.61a2.31 2.31 0 0 0 2.31 2.309ZM200.162 204.122h38.729a2.31 2.31 0 0 0 2.31-2.309v-16.61a2.309 2.309 0 0 0-2.31-2.309h-38.729a2.309 2.309 0 0 0-2.309 2.309v16.61a2.31 2.31 0 0 0 2.309 2.309ZM155.133 204.122h38.729a2.31 2.31 0 0 0 2.31-2.309v-16.61a2.309 2.309 0 0 0-2.31-2.309h-38.729a2.31 2.31 0 0 0-2.31 2.309v16.61a2.31 2.31 0 0 0 2.31 2.309ZM110.104 204.122h38.729a2.31 2.31 0 0 0 2.31-2.309v-16.61a2.309 2.309 0 0 0-2.31-2.309h-38.729a2.31 2.31 0 0 0-2.31 2.309v16.61a2.31 2.31 0 0 0 2.31 2.309ZM224.689 181.03h38.729a2.309 2.309 0 0 0 2.309-2.31v-16.609a2.308 2.308 0 0 0-2.309-2.309h-38.729a2.309 2.309 0 0 0-2.31 2.309v16.609a2.31 2.31 0 0 0 2.31 2.31ZM180.186 181.031h38.729a2.31 2.31 0 0 0 2.31-2.31v-16.61a2.309 2.309 0 0 0-2.31-2.309h-38.729a2.31 2.31 0 0 0-2.31 2.309v16.61a2.31 2.31 0 0 0 2.31 2.31ZM135.159 181.03h38.729a2.31 2.31 0 0 0 2.31-2.31v-16.609a2.309 2.309 0 0 0-2.31-2.309h-38.729a2.31 2.31 0 0 0-2.31 2.309v16.609a2.31 2.31 0 0 0 2.31 2.31ZM90.13 181.031h38.729a2.31 2.31 0 0 0 2.309-2.31v-16.61a2.309 2.309 0 0 0-2.309-2.309h-38.73a2.309 2.309 0 0 0-2.309 2.309v16.61a2.31 2.31 0 0 0 2.31 2.31ZM224.688 227.215h38.73a2.31 2.31 0 0 0 2.309-2.309v-16.61a2.31 2.31 0 0 0-2.309-2.309h-38.73a2.31 2.31 0 0 0-2.309 2.309v16.61a2.31 2.31 0 0 0 2.309 2.309ZM180.186 227.215h38.729a2.31 2.31 0 0 0 2.31-2.309v-16.61a2.31 2.31 0 0 0-2.31-2.309h-38.729a2.31 2.31 0 0 0-2.31 2.309v16.61a2.31 2.31 0 0 0 2.31 2.309ZM135.158 227.215h38.73a2.31 2.31 0 0 0 2.309-2.309v-16.61a2.31 2.31 0 0 0-2.309-2.309h-38.73a2.31 2.31 0 0 0-2.309 2.309v16.61a2.31 2.31 0 0 0 2.309 2.309ZM90.13 227.215h38.729a2.31 2.31 0 0 0 2.309-2.309v-16.61a2.31 2.31 0 0 0-2.309-2.309h-38.73a2.31 2.31 0 0 0-2.309 2.309v16.61a2.31 2.31 0 0 0 2.31 2.309ZM223.751 274.301h38.729a2.31 2.31 0 0 0 2.31-2.31v-16.61a2.31 2.31 0 0 0-2.31-2.309h-38.729a2.31 2.31 0 0 0-2.309 2.308v16.611a2.31 2.31 0 0 0 2.309 2.31ZM178.722 274.301h38.729a2.31 2.31 0 0 0 2.31-2.31v-16.61a2.31 2.31 0 0 0-2.31-2.309h-38.729a2.31 2.31 0 0 0-2.31 2.309v16.61a2.31 2.31 0 0 0 2.31 2.31ZM133.693 274.301h38.729a2.31 2.31 0 0 0 2.31-2.31v-16.61a2.31 2.31 0 0 0-2.31-2.309h-38.729a2.31 2.31 0 0 0-2.31 2.308v16.611a2.31 2.31 0 0 0 2.31 2.31ZM248.278 251.209h38.729a2.31 2.31 0 0 0 2.31-2.31v-16.61a2.31 2.31 0 0 0-2.31-2.31h-38.729a2.31 2.31 0 0 0-2.309 2.309v16.611a2.31 2.31 0 0 0 2.309 2.31ZM203.776 251.209h38.729a2.31 2.31 0 0 0 2.31-2.31v-16.61a2.31 2.31 0 0 0-2.31-2.31h-38.729a2.31 2.31 0 0 0-2.31 2.309v16.611a2.31 2.31 0 0 0 2.31 2.31ZM158.747 251.209h38.73a2.31 2.31 0 0 0 2.309-2.31v-16.61a2.31 2.31 0 0 0-2.309-2.31h-38.73a2.31 2.31 0 0 0-2.309 2.31v16.61a2.31 2.31 0 0 0 2.309 2.31ZM113.718 251.209h38.73a2.31 2.31 0 0 0 2.309-2.31v-16.61a2.31 2.31 0 0 0-2.309-2.31h-38.73a2.31 2.31 0 0 0-2.309 2.309v16.611a2.31 2.31 0 0 0 2.309 2.31ZM68.072 251.209h38.73a2.31 2.31 0 0 0 2.309-2.31v-16.61a2.31 2.31 0 0 0-2.309-2.31h-38.73a2.31 2.31 0 0 0-2.309 2.31v16.61a2.31 2.31 0 0 0 2.31 2.31ZM51.666 320.906h38.73a2.309 2.309 0 0 0 2.31-2.309v-16.611a2.31 2.31 0 0 0-2.31-2.309h-38.73a2.31 2.31 0 0 0-2.309 2.309v16.611a2.309 2.309 0 0 0 2.31 2.309ZM73.256 344.481h38.729a2.31 2.31 0 0 0 2.31-2.31V325.56a2.309 2.309 0 0 0-2.31-2.308H73.256a2.308 2.308 0 0 0-2.309 2.308v16.611a2.31 2.31 0 0 0 2.309 2.31ZM68.072 297.332h38.73a2.31 2.31 0 0 0 2.309-2.31v-16.611a2.308 2.308 0 0 0-2.309-2.308h-38.73a2.308 2.308 0 0 0-2.309 2.308v16.611a2.31 2.31 0 0 0 2.31 2.31ZM86.366 134.845h38.73a2.31 2.31 0 0 0 2.309-2.309v-16.611a2.309 2.309 0 0 0-2.309-2.309h-38.73a2.309 2.309 0 0 0-2.309 2.309v16.611a2.31 2.31 0 0 0 2.309 2.309ZM41.337 134.844h38.73a2.31 2.31 0 0 0 2.309-2.309v-16.61a2.309 2.309 0 0 0-2.309-2.309h-38.73a2.309 2.309 0 0 0-2.309 2.309v16.61a2.31 2.31 0 0 0 2.309 2.309ZM65.795 157.769h38.73a2.31 2.31 0 0 0 2.309-2.309v-16.611a2.309 2.309 0 0 0-2.309-2.309h-38.73a2.31 2.31 0 0 0-2.309 2.309v16.611a2.31 2.31 0 0 0 2.309 2.309ZM20.766 177.998h38.729a2.31 2.31 0 0 0 2.31-2.31v-16.61a2.31 2.31 0 0 0-2.31-2.31H20.766a2.31 2.31 0 0 0-2.309 2.31v16.61a2.31 2.31 0 0 0 2.309 2.31ZM63.987 204.122h38.73a2.31 2.31 0 0 0 2.309-2.309v-16.61a2.309 2.309 0 0 0-2.31-2.309H63.987a2.309 2.309 0 0 0-2.309 2.309v16.61a2.31 2.31 0 0 0 2.309 2.309ZM248.278 297.395h38.729a2.31 2.31 0 0 0 2.31-2.309v-16.611a2.31 2.31 0 0 0-2.31-2.309h-38.729a2.31 2.31 0 0 0-2.309 2.309v16.611a2.31 2.31 0 0 0 2.309 2.309ZM203.776 297.395h38.729a2.31 2.31 0 0 0 2.31-2.309v-16.611a2.31 2.31 0 0 0-2.31-2.309h-38.729a2.31 2.31 0 0 0-2.31 2.309v16.611a2.31 2.31 0 0 0 2.31 2.309ZM158.747 297.395h38.73a2.31 2.31 0 0 0 2.309-2.309v-16.611a2.31 2.31 0 0 0-2.309-2.309h-38.73a2.31 2.31 0 0 0-2.309 2.309v16.611a2.31 2.31 0 0 0 2.309 2.309ZM113.718 297.395h38.73a2.31 2.31 0 0 0 2.309-2.309v-16.611a2.31 2.31 0 0 0-2.309-2.309h-38.73a2.31 2.31 0 0 0-2.309 2.309v16.611a2.31 2.31 0 0 0 2.309 2.309ZM298.08 344.481h38.729a2.31 2.31 0 0 0 2.31-2.31V325.56a2.309 2.309 0 0 0-2.31-2.308H298.08a2.31 2.31 0 0 0-2.31 2.308v16.611a2.31 2.31 0 0 0 2.31 2.31ZM278.105 321.388h38.729a2.31 2.31 0 0 0 2.31-2.31v-16.611a2.309 2.309 0 0 0-2.31-2.308h-38.729a2.308 2.308 0 0 0-2.309 2.308v16.611a2.31 2.31 0 0 0 2.309 2.31ZM252.845 344.481h38.729a2.309 2.309 0 0 0 2.309-2.31V325.56a2.308 2.308 0 0 0-2.309-2.308h-38.729a2.31 2.31 0 0 0-2.31 2.308v16.611a2.31 2.31 0 0 0 2.31 2.31ZM208.343 344.481h38.729a2.31 2.31 0 0 0 2.31-2.31V325.56a2.309 2.309 0 0 0-2.31-2.308h-38.729a2.31 2.31 0 0 0-2.31 2.308v16.611a2.31 2.31 0 0 0 2.31 2.31ZM163.314 344.481h38.73a2.31 2.31 0 0 0 2.309-2.31V325.56a2.308 2.308 0 0 0-2.309-2.308h-38.73a2.308 2.308 0 0 0-2.309 2.308v16.611a2.31 2.31 0 0 0 2.309 2.31ZM118.285 344.481h38.73a2.31 2.31 0 0 0 2.309-2.31V325.56a2.308 2.308 0 0 0-2.309-2.308h-38.73a2.308 2.308 0 0 0-2.309 2.308v16.611a2.31 2.31 0 0 0 2.309 2.31ZM232.869 321.388h38.729a2.31 2.31 0 0 0 2.31-2.31v-16.611a2.309 2.309 0 0 0-2.31-2.308h-38.729a2.308 2.308 0 0 0-2.309 2.308v16.611a2.31 2.31 0 0 0 2.309 2.31ZM188.367 321.388h38.73a2.31 2.31 0 0 0 2.309-2.31v-16.611a2.308 2.308 0 0 0-2.309-2.308h-38.73a2.308 2.308 0 0 0-2.309 2.308v16.611a2.31 2.31 0 0 0 2.309 2.31ZM143.339 321.388h38.73a2.31 2.31 0 0 0 2.309-2.31v-16.611a2.309 2.309 0 0 0-2.31-2.308h-38.729a2.308 2.308 0 0 0-2.309 2.308v16.611a2.31 2.31 0 0 0 2.309 2.31ZM98.31 321.388h38.729a2.31 2.31 0 0 0 2.31-2.31v-16.611a2.309 2.309 0 0 0-2.31-2.308H98.31a2.308 2.308 0 0 0-2.309 2.308v16.611a2.31 2.31 0 0 0 2.309 2.31ZM188.367 367.574h38.73a2.31 2.31 0 0 0 2.309-2.31v-16.61a2.31 2.31 0 0 0-2.309-2.309h-38.73a2.31 2.31 0 0 0-2.309 2.309v16.61a2.31 2.31 0 0 0 2.309 2.31ZM143.339 367.574h38.729a2.31 2.31 0 0 0 2.31-2.31v-16.611a2.31 2.31 0 0 0-2.309-2.309h-38.73a2.31 2.31 0 0 0-2.309 2.309v16.611a2.31 2.31 0 0 0 2.309 2.31ZM98.31 367.574h38.729a2.31 2.31 0 0 0 2.31-2.31v-16.61a2.31 2.31 0 0 0-2.31-2.309H98.31a2.31 2.31 0 0 0-2.309 2.309v16.61a2.31 2.31 0 0 0 2.309 2.31ZM73.256 389.272h38.729a2.31 2.31 0 0 0 2.31-2.31v-16.611a2.31 2.31 0 0 0-2.31-2.309H73.256a2.31 2.31 0 0 0-2.309 2.309v16.611a2.31 2.31 0 0 0 2.309 2.31ZM208.343 389.272h38.729a2.31 2.31 0 0 0 2.31-2.31v-16.611a2.31 2.31 0 0 0-2.31-2.309h-38.729a2.31 2.31 0 0 0-2.31 2.309v16.611a2.311 2.311 0 0 0 2.31 2.31ZM163.314 389.272h38.73a2.31 2.31 0 0 0 2.309-2.31v-16.611a2.31 2.31 0 0 0-2.309-2.309h-38.73a2.31 2.31 0 0 0-2.309 2.309v16.611a2.31 2.31 0 0 0 2.309 2.31ZM118.285 389.272h38.73a2.31 2.31 0 0 0 2.309-2.31v-16.611a2.31 2.31 0 0 0-2.309-2.309h-38.73a2.31 2.31 0 0 0-2.309 2.309v16.611a2.31 2.31 0 0 0 2.309 2.31ZM188.367 412.365h38.73a2.309 2.309 0 0 0 2.309-2.309v-16.611a2.31 2.31 0 0 0-2.309-2.309h-38.73a2.31 2.31 0 0 0-2.309 2.309v16.611a2.309 2.309 0 0 0 2.309 2.309ZM143.339 412.365h38.73a2.309 2.309 0 0 0 2.309-2.309v-16.611a2.31 2.31 0 0 0-2.31-2.309h-38.729a2.31 2.31 0 0 0-2.309 2.309v16.611a2.309 2.309 0 0 0 2.309 2.309ZM98.31 412.365h38.729a2.309 2.309 0 0 0 2.31-2.309v-16.611a2.31 2.31 0 0 0-2.31-2.309H98.31a2.31 2.31 0 0 0-2.309 2.309v16.611a2.309 2.309 0 0 0 2.309 2.309Z"/></g><path fill="#AAD6E6" d="M269.497 405.674c0 3.268-51 5.916-113.912 5.916-62.912 0-113.912-2.648-113.912-5.916 0-3.267 51-5.914 113.912-5.914 62.912 0 113.912 2.647 113.912 5.914ZM375.958 406.674c0 1.883-19.866 3.408-44.373 3.408-24.507 0-44.373-1.525-44.373-3.408 0-1.881 19.866-3.406 44.373-3.406 24.507 0 44.373 1.525 44.373 3.406ZM143.016 205.8c10.729-9.838 16.042-28.972 26.99-38.415 3.316-2.859 3.363-12.796 9.76-10.749l-2.348 3.77c5.249-1.031 4.698-7.544 8.013-10.403 1.934 1.826 2.9 2.737 4.651 2.392-1.566 2.515-4.882 5.374-5.482 8.804l2.897 2.734c2.536-1.602 2.951-7.198 5.482-8.803l3.869 3.651c.965.912 1.748-.346 2.531-1.603l-3.132 5.03 3.864 3.647c.969.914 1.751-.342 2.535-1.6 1.933 1.823 4.649 2.389 4.831 4.558l-2.349 3.774c4.1-4.117 10.497-2.073 13.397.665-1.752.345 1.15 3.083-.6 3.426 5.248-1.034 11.463-1.159 9.296 4.781-24.504 46.748-56.559 88.364-85.898 130.551-2.534 1.602-3.682-1.481-5.615-3.307 3.131-5.026 7.231-9.143 7.646-14.739.784-1.258-4.647-2.394-5.801-5.477l3.133-5.033c-2.114-3.99-6.579-4.211-8.696-8.208-2.117-3.992 2.949-7.194 1.798-10.278.42-5.598-4.464-.22-6.813 3.552-1.151-3.081-1.566 2.515-3.499.69-3.865-3.648-7.733-7.3-7.499-15.063-.185-2.171-3.866-3.65-5.799-5.474 9.397-15.088 19.576-31.435 32.838-42.873Z"/><path fill="#34495E" d="M46.804 288.855c12.719-19.795 26.871-39.083 41.214-58.122 1.053-1.779 2.175-3.527 2.153-4.522 1.725-4.738-3.151 1.878-5.797 6.022-.043-1.97-1.764 2.764-2.689 2.173-.979-.625-1.953-1.259-2.339-2.661a3.216 3.216 0 0 1-.748.142l.609-.864a6.503 6.503 0 0 1-.033-.87c-2.115 1.888-2.821 4.769-4.791 6.758-.898-.633-1.346-.947-2.423-.372 1.256-1.781 3.588-4.135 4.396-6.233l-1.343-.948c-1.706 1.465-2.693 4.768-4.397 6.233l-1.793-1.266c-.448-.316-1.077.575-1.704 1.464l2.512-3.56-1.792-1.266c-.45-.316-1.077.574-1.706 1.465-.896-.632-2.421-.374-2.24-1.58l1.884-2.671c-2.961 3.245-6.458 3.445-7.803 2.497 1.078-.575-.268-1.524.809-2.097-3.229 1.721-6.905 3.128-4.841-.748 20.631-32.106 45.029-62.89 67.903-93.416 1.705-1.464 1.972.06 2.868.692-2.51 3.559-5.471 6.804-6.458 10.107-.628.891 2.42.375 2.691 1.897l-2.513 3.563c.716 1.838 3.317 1.005 4.033 2.846.717 1.837-2.691 4.765-2.422 6.288-.524 1.75.239 1.404 1.35.303 6.451-10.217 12.665-21.21 19.601-29.798 3.109-3.85 5.669-11.938 9.744-13.224l-2.645 4.143c4.033-3.257 5.292-8.288 8.4-12.136.926.591 1.387.886 2.733-.202-1.764 2.764-4.873 6.612-6.175 9.672l1.385.885c2.229-2.469 3.95-7.203 6.176-9.672l1.851 1.181c.462.294 1.344-1.086 2.225-2.466l-3.528 5.525 1.848 1.18c.464.296 1.345-1.085 2.229-2.468.923.59 2.731-.201 2.31 1.475l-2.647 4.146c2.349-3.078 4.722-4.783 6.564-5.491 2.531-4.135 5.136-8.128 8.109-11.419 2.221-2.459 3.302-8.23 6.786-8.59l-1.758 2.753c3.145-1.867 3.517-5.509 5.738-7.968.925.591 1.387.887 2.437.263-1.173 1.836-3.394 4.294-4.105 6.427l1.386.886c1.637-1.542 2.47-4.887 4.104-6.429l1.851 1.181c.461.295 1.048-.622 1.634-1.54l-2.345 3.673 1.848 1.18c.464.296 1.05-.622 1.636-1.542.925.591 2.436.264 2.311 1.477l-1.759 2.755c2.809-3.378 6.292-3.739 7.679-2.853-1.049.623.338 1.509-.711 2.13 3.146-1.868 6.754-3.442 4.871.525-19.132 33.022-42.088 64.896-63.533 96.442-1.635 1.542-1.972.031-2.897-.559 2.344-3.67 5.153-7.048 5.987-10.393.586-.919-2.435-.264-2.776-1.772l2.346-3.674c-.799-1.803-3.359-.852-4.159-2.657-.801-1.802 2.469-4.884 2.13-6.393.837-3.347-2.559.951-4.317 3.705l-.012-.039c-9.52 14.609-19.212 29.152-28.914 43.628.114.141.221.293.296.487.717 1.838-2.691 4.766-2.422 6.289-.99 3.305 2.6-.832 4.483-3.503.269 1.522 1.256-1.781 2.153-1.148 1.793 1.264 3.586 2.529 2.419 7.038-.179 1.207 1.793 1.265 2.689 1.897-7.535 10.682-15.698 22.255-25.025 31.672-7.624 7.953-13.291 20.083-20.991 27.856-2.332 2.356-3.677 8.07-7.174 8.27l1.883-2.669c-3.228 1.719-3.767 5.34-6.099 7.694-.897-.633-1.344-.95-2.422-.375 1.256-1.781 3.588-4.134 4.396-6.231l-1.343-.949c-1.706 1.465-2.693 4.767-4.396 6.232l-1.795-1.265c-.447-.316-1.075.575-1.703 1.465l2.511-3.562-1.792-1.263c-.449-.317-1.076.572-1.705 1.464-.896-.632-2.42-.374-2.24-1.58l1.884-2.671c-2.961 3.244-6.458 3.445-7.803 2.496 1.078-.574-.267-1.524.809-2.097-3.229 1.722-6.905 3.128-4.841-.748Z"/><path fill="#2F357B" d="M193.244 407.884a2.843 2.843 0 0 1-2.646-1.803L120.146 226.79a2.842 2.842 0 1 1 5.29-2.079l70.452 179.291a2.842 2.842 0 0 1-2.644 3.882ZM256.031 407.884a2.844 2.844 0 0 1-2.647-1.803L182.932 226.79a2.843 2.843 0 0 1 5.291-2.079l70.452 179.291a2.842 2.842 0 0 1-2.644 3.882Z"/><path fill="#2F357B" d="M199.436 259.686h-64.427a2.841 2.841 0 1 1 0-5.684h64.427a2.842 2.842 0 0 1 0 5.684ZM211.212 289.634h-64.427a2.841 2.841 0 1 1 0-5.684h64.427a2.842 2.842 0 0 1 0 5.684ZM223.21 318.238h-64.426a2.841 2.841 0 1 1 0-5.684h64.426a2.842 2.842 0 0 1 0 5.684ZM232.28 344.729h-64.427a2.843 2.843 0 0 1 0-5.684h64.427a2.843 2.843 0 0 1 0 5.684ZM242.613 371.221h-64.427a2.841 2.841 0 1 1 0-5.684h64.427a2.842 2.842 0 0 1 0 5.684Z"/><path fill="#2F357B" d="M193.244 407.884a2.843 2.843 0 0 1-2.646-1.803L120.146 226.79a2.842 2.842 0 1 1 5.29-2.079l70.452 179.291a2.842 2.842 0 0 1-2.644 3.882ZM256.03 407.884a2.843 2.843 0 0 1-2.646-1.803L182.932 226.79a2.842 2.842 0 1 1 5.29-2.079l70.453 179.291a2.842 2.842 0 0 1-2.645 3.882Z"/><path fill="#2F357B" d="M199.436 259.686h-64.427a2.841 2.841 0 1 1 0-5.684h64.427a2.842 2.842 0 0 1 0 5.684ZM211.212 289.634h-64.427a2.841 2.841 0 1 1 0-5.684h64.427a2.842 2.842 0 0 1 0 5.684ZM223.21 318.238h-64.426a2.841 2.841 0 1 1 0-5.684h64.426a2.842 2.842 0 0 1 0 5.684ZM232.28 344.729h-64.427a2.843 2.843 0 0 1 0-5.684h64.427a2.843 2.843 0 0 1 0 5.684ZM242.613 371.221h-64.427a2.841 2.841 0 1 1 0-5.684h64.427a2.842 2.842 0 0 1 0 5.684Z"/><path fill="#2F357B" d="M114.323 407.884a2.842 2.842 0 0 1-2.644-3.882l70.451-179.291a2.843 2.843 0 0 1 5.291 2.079l-70.452 179.291a2.844 2.844 0 0 1-2.646 1.803ZM51.536 407.884a2.842 2.842 0 0 1-2.644-3.882l70.451-179.291a2.843 2.843 0 0 1 5.291 2.079L54.182 406.081a2.844 2.844 0 0 1-2.646 1.803Z"/><path fill="#2F357B" d="M172.557 259.686h-64.426a2.841 2.841 0 1 1 0-5.684h64.426a2.843 2.843 0 0 1 0 5.684ZM160.781 289.634H96.355a2.841 2.841 0 1 1 0-5.684h64.426a2.843 2.843 0 0 1 0 5.684ZM148.782 318.238H84.355a2.841 2.841 0 1 1 0-5.684h64.427a2.842 2.842 0 0 1 0 5.684ZM139.712 344.729H75.286a2.843 2.843 0 0 1 0-5.684h64.426a2.843 2.843 0 0 1 0 5.684ZM129.38 371.221H64.953a2.841 2.841 0 1 1 0-5.684h64.427a2.842 2.842 0 0 1 0 5.684Z"/><path fill="#509CAB" d="M319.44 358.684c-.936-2.334-2.35-4.46-4.073-6.342-.031 1.138-.261 2.264-.895 3.209-.154.227-1.62-4.202-2.375-6.194a24.882 24.882 0 0 0-1.394-.986 25.117 25.117 0 0 0-3.467-1.916c.384 2.034.519 4.08.415 6.158-.021.417-.725.411-.706-.013a25.537 25.537 0 0 0-.485-6.494 32.04 32.04 0 0 0-3.011-1.111 20.123 20.123 0 0 1 1.368 6.857c.007.425-.69.41-.705-.008a19.655 19.655 0 0 0-1.49-7.097 32.816 32.816 0 0 0-2.911-.696c.079 1.613 0 3.205-.408 4.806-.083.331-1.344-3.463-1.794-5.164a35.92 35.92 0 0 0-2.778-.266c-.018 1.054-.118 2.1-.403 3.131-.069.246-1.837-2.138-2.524-3.207-2.919.032-5.806.381-8.517 1.059 1.121 1.647 2.058 3.332 2.279 5.324.041.416-.655.407-.706-.013-.205-1.915-1.188-3.555-2.275-5.129a28.93 28.93 0 0 0-2.167.678c-2.604.931-8.584 3.797-7.919 7.234a.398.398 0 0 0 .019.096c.782 3.158 8.955 3.129 11.637 3.494 5.934.808 11.743 1.66 16.765 4.99 5.918 3.927 11.35 8.738 16.727 13.296.34.291.732.318 1.067.197.061-.015.319-1.018.605-2.542.665-3.573 1.455-10.028.121-13.351Z"/><path stroke="#271B3D" stroke-linecap="round" stroke-linejoin="round" stroke-width=".5" d="M314.391 370.772c2.621 1.861 4.282 3.954 5.465 6.915 1.428 3.574 2.849 7.306 3.61 11.043.25 1.23.473 2.462.684 3.698"/><path fill="#265652" d="M272.518 352.599c.782 3.159 8.955 3.131 11.638 3.495 5.934.808 11.742 1.66 16.764 4.991 5.918 3.927 11.35 8.737 16.727 13.296.342.29.732.318 1.067.197.06-.016-4.731-14.013-14.19-19.661-9.28-5.543-21.324-3.261-32.006-2.318Z"/><path fill="#509CAB" d="M331.024 342.208a48.596 48.596 0 0 0-.125-1.069c-1.31 1.908-2.758 3.705-4.626 5.207-.259.209 2.395-6.737 3.735-9.96-.481-1.753-1.181-3.453-2.263-5.025-2.246-3.267-5.452-6.102-8.524-8.686-.123-.107-.262-.206-.386-.314a16.5 16.5 0 0 1-1.573 4.947c-.138.276-.615-4.562-.735-6.792a75.478 75.478 0 0 0-2.273-1.675c-1.018-.728-2.367-2.039-3.767-1.543-1.364.471-3.308 6.512-3.354 8.137a39.747 39.747 0 0 0-.006 2.101c1.636 1.501 3.54 2.686 5.67 3.553.411.166.126.759-.293.595a19.73 19.73 0 0 1-5.354-3.232c.1 2.817.435 5.658.839 8.427.133.125.267.252.414.369 1.526 1.261 5.082 3.725 4.792 3.787-1.567.318-3.12.097-4.559-.454.525 2.467 1.263 4.89 2.341 7.192 2.261 2.185 7.982 5.89 7.663 5.928-1.319.163-2.616.088-3.912-.06a27.554 27.554 0 0 0 3.849 3.769c2.906 2.355 6.636 3.955 8.655 7.138a.24.24 0 0 0 .176.122c.069.184.334.291.481.092 4.795-6.605 3.968-15.003 3.135-22.554Z"/><path stroke="#271B3D" stroke-linecap="round" stroke-linejoin="round" stroke-width=".5" d="M320.841 342.46c-2.029-5.38-5.057-12.896-7.492-18.135"/><path stroke="#271B3D" stroke-linecap="round" stroke-linejoin="round" stroke-width=".5" d="M322.12 346.046a454.778 454.778 0 0 0-1.802-5.02.31.31 0 0 0 .219-.177 27.19 27.19 0 0 0 2.405-8.717"/><path stroke="#271B3D" stroke-linecap="round" stroke-linejoin="round" stroke-width=".5" d="M329.58 392.264c.233.005.465.006.697.012-.034-9.243-.685-18.459-2.617-27.519a.246.246 0 0 0 .044-.229c-.246-.96-.499-1.919-.757-2.875a93.294 93.294 0 0 0-1.183-4.333c-.016-.053-2.498-8.018-3.866-11.916a.351.351 0 0 0 .118-.121 17.33 17.33 0 0 0 2.089-6.004"/><path stroke="#271B3D" stroke-linecap="round" stroke-linejoin="round" stroke-width=".5" d="M321.074 355.679c1.103 1.023 3.359 2.356 4.909 2.388M309.68 334.699c2.619 1.38 6.057 2.731 9.142 2.549.011-.001-.726-.051-.716-.051M345.663 355.298c-2.828 4.763-5.673 9.556-7.613 14.715-2 5.317-2.725 10.918-3.408 16.497a1253.53 1253.53 0 0 0-.656 5.467"/><path fill="#509CAB" d="M375.218 333.102a.385.385 0 0 0-.016-.098c-.528-3.457-7.173-4.468-9.959-4.605a29.542 29.542 0 0 0-2.289-.021c-.501 1.81-.88 3.651-.428 5.531.092.415-.565.623-.665.215-.464-1.958-.143-3.829.365-5.718-2.802.134-5.662.632-8.445 1.44-.291 1.213-1.163 3.989-1.311 3.774-.619-.898-1.069-1.865-1.442-2.862-.867.325-1.719.663-2.547 1.051.148 1.747.23 5.716.04 5.425-.928-1.406-1.541-2.895-2.011-4.451-.871.462-1.719.964-2.529 1.497-.126 2.438.209 4.824.981 7.178.128.401-.531.615-.665.209a20.062 20.062 0 0 1-1.018-6.915 30.158 30.158 0 0 0-2.484 1.923c.31 2.17.882 4.26 1.732 6.314.161.4-.503.607-.664.216a26.511 26.511 0 0 1-1.688-5.975 23.377 23.377 0 0 0-3.633 4.154c-.045 2.112.059 6.745-.165 6.574-.92-.716-1.519-1.721-1.933-2.794-1 2.284-1.625 4.711-1.726 7.2-.144 3.544 2.787 9.455 4.625 12.662.785 1.368 1.368 2.249 1.431 2.245.359.019.72-.12.946-.494 3.566-5.88 7.098-12.014 11.392-17.449 3.644-4.608 8.874-7.087 14.235-9.562 2.425-1.115 10.196-3.436 9.871-6.664Z"/><path fill="#265652" d="M345.61 344.496c-7.075 8.09-6.899 22.779-6.837 22.776.36.019.722-.121.947-.494 3.566-5.881 7.1-12.015 11.393-17.45 3.644-4.608 8.873-7.087 14.235-9.561 2.423-1.116 10.195-3.437 9.87-6.665-10.461 2.172-22.668 3.46-29.608 11.394Z"/><path fill="#509CAB" d="M391.83 355.089c-.525-1.258-2.432-1.27-3.666-1.453-.928-.147-1.864-.263-2.801-.38-1.831 1.416-5.945 4.342-5.817 4.066.714-1.579 1.692-3.029 2.863-4.354-.164-.011-.332-.036-.498-.047-4.032-.297-8.348-.514-12.381.192-1.94.34-3.734 1.014-5.427 1.871-1.661 3.047-5.39 9.455-5.395 9.145-.037-2.241.431-4.402 1.08-6.547-.313.209-.614.42-.922.636-6.479 4.51-13.62 9.591-15.688 17.188-.06.231.197.334.388.257a.238.238 0 0 0 .209.033c3.819-.798 7.505.592 11.25.935 1.811.173 3.647.174 5.471.017-.961-.758-1.865-1.563-2.596-2.543-.179-.238 6.461 1.061 9.653 1.091 2.512-.833 4.897-1.968 7.18-3.275-1.369-.584-2.557-1.459-3.328-2.71-.141-.232 4.115.467 6.098.631.189.017.375.021.56.025 2.44-1.59 4.892-3.273 7.172-5.096a19.964 19.964 0 0 1-6.028-1.369c-.403-.168-.123-.755.275-.592a19.192 19.192 0 0 0 6.487 1.364 46.383 46.383 0 0 0 1.647-1.413c1.249-1.12 4.732-6.455 4.214-7.672Z"/><path stroke="#271B3D" stroke-linecap="round" stroke-linejoin="round" stroke-width=".5" d="M365.677 360.823a18.194 18.194 0 0 0-3.359 5.405.304.304 0 0 0-.018.16c-6.389 2.759-22.229 6.002-25.564 19.986M372.053 356.803c-2.176 2.233-5.223 5.013-5.411 8.015"/><path stroke="#271B3D" stroke-linecap="round" stroke-linejoin="round" stroke-width=".5" d="M361.511 366.714c4.219-1.641 18.864-6.78 23.168-8.216M371.222 363.391c.006.01.006.018.014.025 1.867 2.161 4.648 3.066 7.439 3.872M349.423 371.541c1.366.581 2.832.901 4.353.944"/><path fill="#4D5A7C" d="M312.54 393.025c0 1.223.138 2.419.401 3.569.953 4.179 3.545 7.79 7.119 10.218h21.332c3.57-2.428 6.162-6.039 7.116-10.218a16.061 16.061 0 0 0-.036-7.28 15.975 15.975 0 0 0-1.001-2.936h-33.49a15.836 15.836 0 0 0-1.004 2.936 15.845 15.845 0 0 0-.437 3.711Z"/><path fill="#242A3B" fill-opacity=".31" d="M340.831 386.378h6.641a15.96 15.96 0 0 1 1.001 2.937 16.076 16.076 0 0 1 .036 7.28c-.954 4.179-3.546 7.789-7.116 10.217h-2.953c3.571-2.428 5.235-13.512 2.391-20.434Z"/><path fill="#FEFEFE" d="M315.267 388.064c.306-1.197 2.275-.689 1.97.509-.824 3.23-1.298 6.691.454 9.735.624 1.085-1.14 2.051-1.764.966-2.026-3.521-1.618-7.454-.66-11.21Z"/><path stroke="#1E4587" stroke-miterlimit="10" d="m104.688 244.416 3.754-6.403s-2.448-16.001-15.683-13.777c0 0-10.131 1.407-8.21 18.036 1.922 16.627 20.139 2.144 20.139 2.144Z"/><path fill="#FEC920" d="m108.944 238.062 3.319 28.723c.099.85-5.364 2.739-12.279 3.538-6.915.799-12.666.206-12.764-.645L83.9 240.955l25.043-2.893Z"/><path fill="#FEAB0F" d="M83.901 240.955c.098.85 5.784.89 12.698.091 6.916-.799 12.444-2.135 12.345-2.984-.098-.85-5.784-.89-12.7-.091-6.914.799-12.441 2.135-12.343 2.984Z"/><path fill="#74B5C9" d="M106.284 239.095c-1.814.702-5.786 1.502-10.45 2.041-4.661.539-8.713.665-10.64.396 1.815-.701 5.789-1.501 10.45-2.039 4.664-.539 8.714-.667 10.64-.398Z"/><path fill="#FEC91A" d="m111.865 263.351.397 3.434c.098.849-5.364 2.739-12.279 3.538-6.915.799-12.665.205-12.763-.645l-3.004-25.993c3.48 12.444 11.786 21.055 27.649 19.666Z"/><path fill="#AAD6E6" d="M106.868 238.726a1.72 1.72 0 0 1 2.213 1.566c.122 2.761-.015 5.751-1.181 4.911-1.703-1.229-2.12-5.659-3.376-3.805-1.143 1.687-2.415 7.108-3.684 2.85-1.27-4.258-2.94-3.436-3.28-2.104-.446 1.742 1.182 6.875-.79 7.103-2.367.274-2.174-6.358-4.09-6.54-1.732-.165-.737 2.059-1.952 4.211-1.463 2.593-2.589-3.686-3.608-3.568-2.195.253-1.76 3.578-2.7 2.087-.522-.827-.643-2.117-.648-3.1a1.286 1.286 0 0 1 1.356-1.287c3.338.177 12.641.356 21.74-2.324Z"/><path fill="#3D8283" d="m125.459 174.099-1.893-4.836s-3.005.811-5.932 6.477c-2.926 5.666-10.266 33.066-20.931 41.495 0 0-2.558 3.232-4.739 4.744-.872.604-1.316 1.683-1.328 2.758-.019 1.99 7.256-3.235 9.346-4.555 0 0 15.471-7.904 21.409-18.331 5.938-10.426 4.068-27.752 4.068-27.752Z"/><path fill="#509CAB" d="m125.458 174.099-1.892-4.836s-3.005.811-5.932 6.477c-2.926 5.666-10.267 33.067-20.932 41.496 0 0-2.558 3.231-4.739 4.743-.663.459 7.222-.205 7.624-2.214 0 0 15.865-7.486 21.803-17.913 5.938-10.426 4.068-27.753 4.068-27.753Z"/><path fill="#FCBAA9" d="M91.962 221.978c2.182-1.511 4.739-4.742 4.739-4.742 2.465-1.948 4.75-4.917 6.847-8.39 2.18.944 4.849 2.55 6.269 5.089-5.183 3.867-10.757 6.943-10.757 6.943-1.448 3.437-2.461 2.729-2.461 2.729-1.082-.194-1.804.603-2.274 1.566-.965 1.974-4.044.979-3.612-1.175.16-.809.579-1.555 1.25-2.02Z"/><path fill="#F96967" d="m136.68 223.424-6.87 32.689s-10.513 44.459-10.591 47.826c-.079 3.367-5.99 6.396-7.654 5.515-1.664-.881.523-4.039.582-6.565.059-2.525-3.295-23.891-2.248-32.711.775-6.524 3.393-13.003 4.703-15.936a7.06 7.06 0 0 0 .584-3.509c-.651-7.375-2.635-34.283 2.265-42.498 5.698-9.553 19.229 15.189 19.229 15.189Z"/><path fill="#1E4587" d="m136.68 223.424-6.87 32.689s-10.513 44.459-10.591 47.826c-.079 3.367-1.675 7.873-7.654 5.515-1.752-.69.523-4.039.582-6.565.059-2.525-3.295-23.891-2.248-32.711.775-6.524 3.393-13.003 4.703-15.936a7.06 7.06 0 0 0 .584-3.509c-.651-7.375-2.635-34.283 2.265-42.498 5.698-9.553 19.229 15.189 19.229 15.189Z"/><path fill="#2E2E2E" fill-opacity=".3" d="M119.291 303.246c.572-5.506 5.64-40.982 6.424-45.491.847-4.876-1.911-35.583-1.911-35.583l3.035-3.399 7.152.167a85.213 85.213 0 0 1 2.689 4.484l-6.87 32.69s-9.594 40.572-10.519 47.132Z"/><path fill="#0B0D13" d="M111.866 304.381c6.526 2.005 7.351-.442 7.351-.442-.079 3.368 10.132 7.965 9.667 9.85-.466 1.884-16.81-1.446-18.475-2.327-1.38-.73.68-4.406 1.457-7.081Z"/><path fill="#0B0D13" d="M113.711 304.861c-.254 1.292-.243 3.571 2.129 5.618 2.605 2.25 9.089 3.332 12.353 3.748-3.182.744-16.301-1.979-17.783-2.764-1.381-.73.679-4.405 1.456-7.081.68.209 1.283.36 1.845.479Z"/><path fill="#1E4587" d="M167.961 232.145c-.215-1.795-.018 0-.018 0 .134-2.554-.12-5.211-3.115-8.762-5.011-5.941-19.651-19.846-39.182-19.004l-10.424 8.979s2.343 3.143 6.583 6.91c3.713 3.297 17.321 10.923 25.36 14.131 8.04 3.208 21.43 3.029 20.796-2.254Z"/><path fill="#1E4587" d="M167.947 232.254h.018s.827 3.81-8.898 21.272c0 0-12.989 21.964-11.962 25.304 0 0 .084 3.16 5.264 4.545 5.18 1.384 5.597 3.763 4.177 3.73-1.421-.033-17.366-.247-18.126-1.529-.76-1.281 1.612-5.488 1.667-7.856.176-7.552.55-15.138 1.945-22.576.353-1.884 3.077-14.028 5.892-18.336a1.725 1.725 0 0 0-.78-2.543c5.411-12.872 20.743-5.957 20.803-2.011Z"/><path fill="#0B0D13" d="M147.105 278.83c.749 1.754 3.695 4.126 5.264 4.545 5.18 1.385 5.597 3.763 4.177 3.73-1.421-.033-17.367-.247-18.127-1.529-.504-.85.891-4.878 1.554-6.912 3.815 1.11 5.288 1.387 7.132.166Z"/><path fill="#0B0D13" d="M138.42 285.576c-.504-.85.891-4.878 1.553-6.912l.218.062c.283 1.897 1.336 5.862 5.221 6.411 5.134.727 11.135 1.967 11.135 1.967-1.421-.033-17.367-.246-18.127-1.528Z"/><path fill="#2E2E2E" fill-opacity=".3" d="M147.144 234.265s5.267 1.641 3.491 3.307c-6.511 6.104-9.868 22.692-10.207 31.419 0 0 .864-15.911 4.681-25.537 0 0 1.422-4.558 2.816-6.647 0 0 .927-1.8-.781-2.542Z"/><path fill="#FCBAA9" d="M122.309 163.144c2.837 2.947 1.522 7.951 1.522 7.951s6.995-.645 10.052-1.417l.736-2.132c-1.326-1.008-2.402-2.064-2.256-4.754.996-.556-12.484-.472-10.054.352Z"/><path fill="#FC843F" d="M122.31 163.144c2.837 2.947 1.521 7.951 1.521 7.951s6.995-.645 10.052-1.417l.736-2.132c-1.326-1.008-2.402-2.064-2.256-4.754.996-.556-12.483-.472-10.053.352Z"/><path fill="#FCBAA9" d="M134.964 160.497c-10.116 1.546-15.462-10.11-15.462-10.11l-4.185 5.029 1.002 3.689c1.769 2.092 3.552 3.307 5.991 4.104 2.869 2.915 8.99.055 10.048-.464a8.99 8.99 0 0 0 2.606-2.248Z"/><path fill="#FCBAA9" d="M120.993 142.733s3.46-.595 6.375 1.418c2.916 2.012 4.493 4.791 5.78 5.351 1.327.579 2.039.614 2.039.614s.417.953-.485 2.113c0 0 2.783 4.104.974 7.22-2.209 3.803-6.669 5.256-10.923 4.392-4.268-.865-6.684-2.31-9.303-5.828-2.619-3.519-2.805-14.098 5.543-15.28Z"/><path fill="#FC843F" d="M134.964 160.498c-10.116 1.546-15.462-10.11-15.462-10.11l-4.185 5.028 1.002 3.689c1.769 2.092 3.552 3.307 5.991 4.104 2.869 2.915 9.512-.06 10.048-.464a8.986 8.986 0 0 0 2.606-2.247Z"/><path fill="#0B0D13" d="M119.257 146.099s6.544-3.792 13.539-4.639c0 0 .043 1.105-3.382 2.398-1.705.643 3.612-.372 3.612-.372s-.922 4.361-10.754 7.518c-9.832 3.158-3.015-4.905-3.015-4.905Z"/><path fill="#0B0D13" d="M115.536 147.48s7.776-1.461 4.028 8.178c-1.369 3.519 6.237 6.637 5.067 10.607-.616 2.092-1.641 2.893-1.641 2.893s.281-1.4-3.15-3.552c-3.431-2.151-6.989-4.988-7.456-10.022-.469-5.033 3.152-8.104 3.152-8.104Z"/><path fill="#0B0D13" d="M119.807 163.167c.714 1.31 1.14 2.435 1.379 3.39-.37-.297-.808-.614-1.346-.95-3.43-2.152-6.989-4.989-7.456-10.022-.004-.048-.003-.092-.007-.14l14.11-10.168s-11.5 9.046-6.68 17.89Z"/><path fill="#FEC920" d="M132.046 138.765s-12.465 15.156-20.57 21.874c-.277.229-.672-.075-.528-.404l.408-.931a1.547 1.547 0 0 0-.144-1.504c-1.557-2.247-5.742-9.681 1.636-16.16 2.572-2.258 6.78-4.255 12.264-1.363 1.093.576 2.436.354 3.33-.499 1.58-1.509 3.844-3.53 4.372-3.267.828.415-.768 2.254-.768 2.254Z"/><path fill="#FEC91A" d="M120.206 149.779c-5.185 2.865-8.969-.053-11.111-2.711-1.52 4.743.987 9.103 2.117 10.733.306.444.36 1.01.143 1.503l-.407.931c-.145.329.25.634.527.404 4.155-3.443 9.453-9.102 13.633-13.803-1.15.775-2.727 1.742-4.902 2.943Z"/><path fill="#FC843F" d="M121.093 155s-3.335-.63-3.363 1.446c-.029 2.078 2.458 3.889 3.95 3.14"/><path fill="#FCBAA9" d="M121.093 155s-3.335-.63-3.363 1.446c-.029 2.078 2.458 3.889 3.95 3.14"/><path fill="#FC843F" d="M121.093 155s-3.335-.63-3.363 1.446c-.029 2.078 2.458 3.889 3.95 3.14"/><path fill="#509CAB" d="M137.404 165.763c-3.924 1.832-8.251 3.121-13.038 3.42 0 0-2.342.766-2.533 3.734-.191 2.967-5.685 27.831-6.677 39.688 0 0 12.13 7.426 30.914-3.057l-.949-28.028s.526-6.87-.414-9.14c-3.055-7.373-7.303-6.617-7.303-6.617Z"/><path fill="#3D8283" fill-opacity=".19" d="m145.121 181.52.949 28.028s-16.033 10.476-30.914 3.056c0 0 25.799-4.322 29.965-31.084Z"/><path fill="#0B0D13" d="M144.336 176.375a2.21 2.21 0 0 0 2.935-.833l27.183-46.163a2.211 2.211 0 0 0-3.81-2.243l-27.183 46.162a2.21 2.21 0 0 0 .784 3.026c.029.018.06.034.091.051Z"/><path fill="#0B0D13" d="M170.645 127.136a2.212 2.212 0 0 1 2.327-1.04c-.081.095-.16.195-.225.306l-27.183 46.162a2.211 2.211 0 0 0 .783 3.027c.029.018.061.035.091.051.197.103.403.165.611.204a2.207 2.207 0 0 1-3.587-2.548l27.183-46.162Z"/><path fill="#FEC920" d="m161.431 121.679 21.969 12.938a1.464 1.464 0 0 0 2.005-.522l3.304-5.653a1.462 1.462 0 0 0-.519-1.998l-2.754-1.621-19.218-11.317a1.46 1.46 0 0 0-2.003.523l-3.306 5.654a1.46 1.46 0 0 0 .522 1.996Z"/><path fill="#AAD6E6" d="m188.285 130.343.864-1.517a2.112 2.112 0 0 0-.787-2.876l-21.464-12.287c-1.509-.797-2.257-.283-2.909.657l-.819 1.178c-.384.554-.135 1.364.52 1.524.299.073.619-.004.9-.414.802-1.17 2.208-.543 1.125 1.239-1.983 3.256-1.385 4.944.289 4.445 1.672-.499 3.866-4.306 3.767-3.072-.101 1.235-1.48 3.098.49 3.93 1.109.467 3.18-3.218 2.717-1.991-.465 1.226-.706 2.263.186 2.549.891.288 1.169-.642 1.675-.095.843.909-.868 3.878.816 4.773 2.62 1.392 3.648-3.766 4.447-2.608.799 1.158.695 2.72 2.235 3.081 1.593.373 3.478-3.09 4.321-1.043.521 1.267-.102 4.618 1.627 2.527Z"/><path fill="#509CAB" d="M163.316 168.933c-7.692.243-16.944.235-25.567-3.484-4.938-.15-8.277 13.576.929 18.73l.646.272s7.757 2.096 19.574-1.054c6.375-.726 10.338-11.573 4.418-14.464Z"/><path fill="#3D8283" fill-opacity=".18" d="M165.299 170.659c-8.618 2.225-18.291 2.499-25.328-3.632l.495-.52c7.819 2.669 15.961 2.642 22.851 2.425 1.623.754 1.638 1.215 1.982 1.727Z"/><path fill="#509CAB" d="M166.769 137.419c-.724-.792-2.029-.388-2.243.663-.285 1.392-1.022 3.004-2.848 3.825-3.601 1.621-2.001 2.338-.186 5.522 0 0-1.024 14.124-5.993 22.461-3.965 6.305 7.461 17.582 10.355 9.693 2.053-7.274 3.176-16.753 1.677-28.609-.194-1.537-.491-3.078-1.083-4.511-.197-.475-.256-1.142.294-1.911 1.874-2.622 2.187-4.77.027-7.133Z"/><path fill="#3D8283" fill-opacity=".18" d="M161.492 147.428s.067 16.152-6.22 28.413c-.246-.711-1.361-4.009.23-5.951 4.967-8.337 5.99-22.462 5.99-22.462Z"/><path fill="#FCBAA9" d="M161.491 147.428c-1.815-3.184-3.414-3.901.187-5.521 1.824-.82 2.564-2.433 2.849-3.825.214-1.05 1.518-1.455 2.242-.663 2.16 2.364 1.846 4.511-.027 7.133-.55.768-.49 1.436-.294 1.91.594 1.432.888 2.974 1.083 4.511.326 2.58.515 5.033.61 7.389-3.781.077-6.468-.656-8.09-1.313 1.124-5.285 1.44-9.621 1.44-9.621Z"/></svg>